<?xml version="1.0" encoding="UTF-8"?>
<svg width="430px" height="729px" viewBox="0 0 430 729" version="1.1" xmlns="http://www.w3.org/2000/svg" xmlns:xlink="http://www.w3.org/1999/xlink">
    <!-- Generator: Sketch 62 (91390) - https://sketch.com -->
    <title>fifth-hand-purple</title>
    <desc>Created with Sketch.</desc>
    <g id="Page-1" stroke="none" stroke-width="1" fill="none" fill-rule="evenodd">
        <g id="Landing-Page" transform="translate(-1010.000000, -3395.000000)">
            <g id="fifth-hand-purple" transform="translate(902.000000, 3316.000000)">
                <path d="M108,275.298447 C108,327.099482 108,472.040789 108,710.122367 C108,736.316467 108,755.76223 108,768.459657 C122.736371,792.163255 154.482836,816.935058 226.271844,804.050074 C323.37505,786.621595 333,742 356,730 C400.060676,707.011821 476,710 507,650 C538,590 507.045684,551.215881 515.215834,513.466703 C523.385984,475.717525 546.507993,462.586241 534.713295,415.382007 C522.918598,368.177773 478.161893,363.438142 462.173707,350.091708 C446.185521,336.745275 439.114608,313.927539 391.687873,302.724973 C344.261137,291.522406 291.968174,313.927539 258.076836,307.6643 C224.185497,301.401061 195.638491,260.83301 108,275.298447 Z" id="Path-6" fill="#D4C2E1" transform="translate(323.000000, 539.892070) scale(-1, 1) translate(-323.000000, -539.892070) "></path>
                <g id="Group-3" transform="translate(384.933243, 384.696699) rotate(-45.000000) translate(-384.933243, -384.696699) translate(220.933243, 4.696699)">
                    <path d="M0.873151783,759.595932 L172.11357,588.355514 L188.205138,471.749224 C195.941834,462.671877 207.55311,446.43253 223.038967,423.031181 C238.524824,399.629833 251.98268,377.98613 263.412535,358.100072 C269.009686,350.398218 273.78228,343.730949 277.730318,338.098265 C281.678355,332.465582 286.674983,320.454606 292.720201,302.065338 C305.863576,276.535367 313.031681,261.27308 314.224516,256.278477 C315.417352,251.283874 316.68332,239.594347 318.022419,221.209896 L327.940997,176.605841 C314.970244,171.559721 305.519319,170.412528 299.58822,173.164264 C293.657122,175.915999 286.371154,184.828279 277.730318,199.901104 C274.042713,206.359472 271.348246,211.960789 269.646915,216.705054 C267.945585,221.449318 265.867458,229.156675 263.412535,239.827122 C256.626561,249.905919 251.572619,257.832462 248.25071,263.606751 C244.9288,269.38104 240.247464,278.376783 234.206702,290.593981 L223.038967,199.901104 L223.038967,138.623414 C226.605237,124.165856 230.327816,107.909153 234.206702,89.8533074 C240.025031,62.7695387 243.968902,49.4968746 243.968902,41.1965581 C243.968902,32.8962415 241.04326,18.158614 226.59919,18.158614 C216.96981,18.158614 211.380529,24.3809767 209.831347,36.825702 L196.14412,81.5518444 L181.699277,127.474832 L175.940997,180.921596 L169.693586,180.921596 L169.693586,127.474832 L175.940997,72.4937856 C184.117091,41.7733098 188.205138,23.6615859 188.205138,18.158614 C188.205138,9.90415625 188.205138,2.2319435 175.940997,0.369388008 C163.676855,-1.49316748 156.074257,6.0193844 153.242515,14.3861804 C151.354687,19.9640443 148.308388,30.5669292 144.103618,46.194835 C135.433381,42.5362563 127.476084,44.4485305 120.231729,51.9316574 C112.987373,59.4147844 106.856197,72.0553344 101.8382,89.8533074 L97.223875,105.417562 C92.9839466,96.4578187 87.5585658,91.977947 80.9477327,91.977947 C74.3368995,91.977947 67.8595401,96.4578187 61.5156545,105.417562 C55.7836025,113.959775 50.9683624,122.916888 47.0699341,132.288903 C41.2222918,146.346926 41.2222918,142.023932 35.6828278,167.52096 C31.9898518,184.518979 30.5001395,208.621033 31.2136907,239.827122 C29.7324698,311.840403 29.7324698,358.635386 31.2136907,380.212071 C32.6949116,401.788755 37.2326829,421.094688 44.8270043,438.129868 L0.873151783,759.595932 Z" id="Path-39" fill="#FDEFE6"></path>
                    <path d="M126.369996,148.975066 L124.394353,195.560985 C122.844419,197.91752 121.730397,199.095787 121.052285,199.095787 C120.374173,199.095787 119.768823,197.91752 119.236235,195.560985 C120.295279,178.063387 121.628612,166.197117 123.236235,159.962174 C124.843858,153.727231 125.888445,150.064862 126.369996,148.975066 Z" id="Path-40" fill="#FFFFFF"></path>
                    <path d="M79.3984135,153.180311 L79.3984135,220.128782 L73.696541,225.180311 C73.696541,205.707939 72.9304985,192.094857 71.3984135,184.341064 C75.6838302,170.51796 78.3504969,160.131043 79.3984135,153.180311 Z" id="Path-41" fill="#FFFFFF"></path>
                    <path d="M144.103618,46.194835 C150.196569,52.9913242 152.488354,60.6434253 150.978975,69.1511383 C149.016891,79.4207852 146.707289,87.6555559 144.050169,93.8554506 L125.182558,151.975797 C140.703718,108.360148 149.186588,83.9466521 150.63117,78.7353096 C152.798043,70.9182959 153.440354,69.5222691 151.935514,59.1444745 C150.932288,52.2259448 148.321656,47.9093983 144.103618,46.194835 Z" id="Path-42" fill="#F4E0D2"></path>
                    <path d="M30.9917852,277.321084 C43.8072617,277.615775 64.1819253,273.497842 92.115776,264.967283 C120.049627,256.436725 143.674963,247.117752 162.991785,237.010363 C147.81436,246.569215 130.955598,255.888188 112.415499,264.967283 C93.8753997,274.046379 66.7341618,280.394072 30.9917852,284.010363 L30.9917852,277.321084 Z" id="Path-43" fill="#F4E0D2"></path>
                    <path d="M81.0349296,322.527092 C93.7401262,318.876437 109.073327,310.485138 127.034533,297.353195 C153.976341,277.65528 153.513377,274.694097 181.189646,260.492636 C199.640492,251.024996 215.255587,246.036481 228.03493,245.527092 L228.03493,253.171372 C198.958547,259.374067 177.287112,266.836308 163.020623,275.558096 C141.62089,288.640777 125.136783,308.623764 115.665207,314.049876 C109.350822,317.667284 97.8073967,320.493023 81.0349296,322.527092 Z" id="Path-44" fill="#F4E0D2"></path>
                    <path d="M75.6199384,169.906512 C72.9702407,178.52313 69.5251077,182.341758 65.2845395,181.362395 C61.0439714,180.383032 53.7563203,178.157982 43.4215863,174.687245 C48.3268413,177.146626 52.7612366,179.371677 56.724772,181.362395 C60.6883075,183.353113 65.5795213,184.346003 71.3984135,184.341064 L71.8386693,186.803568 C71.7219423,184.948934 72.0661728,182.55242 72.871361,179.614026 C73.6765491,176.675633 74.5927415,173.439794 75.6199384,169.906512 Z" id="Path-45" fill="#F4E0D2"></path>
                    <path d="M73.8482742,149.035705 C69.2885708,146.774385 63.9813901,143.159826 57.9267322,138.19203 C61.529908,142.713296 65.5613142,146.327854 70.0209509,149.035705 C74.4805876,151.743556 77.7543525,153.795664 79.8422455,155.19203 L83.9267322,142.134913 C81.5061201,147.437698 78.1466341,149.737963 73.8482742,149.035705 Z" id="Path-46" fill="#F4E0D2"></path>
                    <path d="M79.3544909,160.641998 C84.4804691,161.975332 91.8138025,162.641998 101.354491,162.641998 C110.895179,162.641998 118.228513,161.975332 123.354491,160.641998 C115.439867,163.308665 107.815889,164.641998 100.482555,164.641998 C93.1492219,164.641998 86.1065338,163.308665 79.3544909,160.641998 Z" id="Path-47" fill="#F4E0D2"></path>
                    <path d="M100.892288,103.329824 C105.144233,108.641318 112.033259,111.297065 121.559367,111.297065 C131.085476,111.297065 136.707853,111.735425 138.4265,112.612144 C131.090641,113.090597 123.761649,113.329824 116.439522,113.329824 C109.117396,113.329824 103.934984,109.996491 100.892288,103.329824 Z" id="Path-47" fill="#F4E0D2"></path>
                    <path d="M168.984188,124.905365 C161.673763,126.567892 156.158393,127.567768 152.43808,127.904995 C148.717767,128.242221 142.899803,128.242221 134.984188,127.904995 C138.053866,129.905241 142.390623,130.905365 147.994461,130.905365 C153.598299,130.905365 160.594875,128.905365 168.984188,124.905365 Z" id="Path-49" fill="#F4E0D2"></path>
                    <path d="M175.385739,75.0584404 C169.017142,73.6342257 164.65326,72.3608587 162.294096,71.2383391 C159.934931,70.1158196 158.425461,69.0558533 157.765685,68.0584404 C163.051473,69.4163271 167.015815,70.0952705 169.658709,70.0952705 C172.301604,70.0952705 174.670595,69.4163271 176.765685,68.0584404 L175.755782,71.8414628 L175.385739,75.0584404 Z" id="Path-48" fill="#F4E0D2"></path>
                    <path d="M222.123883,137.0552 C213.902705,137.0552 207.402705,136.653912 202.623883,135.851335 C197.84506,135.048759 191.34506,132.455959 183.123883,128.072937 C187.661925,131.370796 192.425868,134.364884 197.415712,137.0552 C202.405557,139.745516 210.641613,139.745516 222.123883,137.0552 Z" id="Path-50" fill="#F4E0D2"></path>
                    <path d="M234.519941,77.250106 C228.27581,78.7463684 221.91296,78.7012549 215.43139,77.1147656 C208.949821,75.5282762 203.646004,72.7177478 199.519941,68.6831802 C207.036921,76.6831802 213.683332,80.6831802 219.459175,80.6831802 C225.235017,80.6831802 230.255272,79.5388221 234.519941,77.250106 Z" id="Path-51" fill="#F4E0D2"></path>
                    <path d="M97.5381489,105.424593 C96.6852968,112.179365 95.5921069,117.516917 94.2585792,121.437249 C92.9250514,125.357581 90.1045729,131.020029 85.7971436,138.424593 C91.6447575,129.679368 95.2041753,123.438174 96.475397,119.701011 C97.7466186,115.963848 98.1008692,111.205042 97.5381489,105.424593 Z" id="Path-52" fill="#F4E0D2"></path>
                    <path d="M37.1803081,242.625189 C45.2547087,237.640873 51.7009394,233.901982 56.5190005,231.408516 C61.3370616,228.915049 66.2241641,227.122656 71.1803081,226.031337 C68.2470539,225.033737 63.3599513,225.873899 56.5190005,228.551825 C49.6780497,231.229751 43.2318189,235.920872 37.1803081,242.625189 Z" id="Path-53" fill="#F4E0D2"></path>
                    <path d="M85.231087,215.713274 C93.1666072,210.849281 99.5019624,207.200648 104.237152,204.767374 C108.972343,202.3341 111.970321,200.982733 113.231087,200.713274 C112.041906,200.713274 108.125239,201.744203 101.481085,203.80606 C94.8369317,205.867918 89.4202655,209.836989 85.231087,215.713274 Z" id="Path-53" fill="#F4E0D2"></path>
                    <path d="M129.423604,193.878942 C137.283482,189.096279 144.083442,185.765402 149.823486,183.886311 C155.56353,182.00722 161.763569,181.082349 168.423604,181.111697 C164.7718,179.112542 158.571761,179.544904 149.823486,182.408786 C141.075211,185.272667 134.275251,189.096052 129.423604,193.878942 Z" id="Path-54" fill="#F4E0D2"></path>
                    <path d="M180.433906,181.15714 C187.880004,181.093925 195.424728,181.922912 203.068079,183.644099 C210.71143,185.365287 216.500039,187.538801 220.433906,190.164642 C214.130242,184.886199 206.278458,181.552866 196.878555,180.164642 C191.755532,180.164642 186.273982,180.495475 180.433906,181.15714 Z" id="Path-55" fill="#F4E0D2"></path>
                    <path d="M263.092057,239.07832 L260.788469,242.856178 C269.573839,246.068572 275.079678,248.11675 277.305983,249.000714 C282.24334,250.961113 288.737502,251.986981 296.788469,252.07832 C289.739956,250.701912 283.739956,249.030704 278.788469,247.064695 C273.836982,245.098686 268.604844,242.436562 263.092057,239.07832 Z" id="Path-56" fill="#F4E0D2"></path>
                    <path d="M237.372928,285.27937 C239.712122,295.658404 241.898717,303.491738 243.932712,308.77937 C245.966707,314.067002 249.806614,321.900335 255.452432,332.27937 C249.625084,323.281717 245.492094,316.362176 243.053464,311.520746 C240.614833,306.679316 237.747822,299.70171 234.452432,290.587928 L237.372928,285.27937 Z" id="Path-57" fill="#F4E0D2"></path>
                    <path d="M151.701361,476.214253 C164.244675,493.617168 172.280749,522.025134 175.809583,561.43815 L188.070538,471.183587 L226.722782,418.922944 L265.914849,353.43815 C245.306551,382.768533 220.00707,408.819794 190.016405,431.591933 C145.030408,465.750141 125.364534,423.307276 91.4962724,431.591933 C68.9174315,437.115038 50.3902903,430.144202 35.9148487,410.679426 C39.0789653,423.91724 42.0172339,432.893045 44.7296544,437.60684 C49.35653,445.647682 58.9609899,448.724464 61.1836356,455.6268 C65.3607591,468.598687 70.1161876,490.354237 75.4499212,520.893452 C78.6529803,475.236718 85.0951576,451.132249 94.7764531,448.580045 C109.298396,444.751739 132.886389,450.10988 151.701361,476.214253 Z" id="Path-58" fill="#F4E0D2"></path>
                </g>
            </g>
        </g>
    </g>
</svg>