<?xml version="1.0" encoding="UTF-8"?>
<svg width="372px" height="274px" viewBox="0 0 372 274" version="1.1" xmlns="http://www.w3.org/2000/svg" xmlns:xlink="http://www.w3.org/1999/xlink">
    <!-- Generator: Sketch 62 (91390) - https://sketch.com -->
    <title>first-hand-coral</title>
    <desc>Created with Sketch.</desc>
    <g id="Page-1" stroke="none" stroke-width="1" fill="none" fill-rule="evenodd">
        <g id="Landing-Page" transform="translate(-1068.000000, -97.000000)">
            <g id="first-hand-coral" transform="translate(1047.000000, 97.000000)">
                <path d="M393,235.267344 C393,271.433305 385.858903,268.291405 371.034598,270.952184 C298.393586,283.990346 279.625072,251.324792 251.533521,245.679534 C223.441969,240.034276 180.097844,260.22874 140.787194,250.131508 C121.751768,245.242117 110.559626,237.897932 102.573588,230.256925 C70.1994878,227.413399 47.5069929,220.95942 44.975654,210.157043 C35.1906819,168.400106 14.6437168,171.978467 24.2139386,129.905179 C33.7841604,87.8318915 70.0997677,83.6074424 83.0725876,71.7117227 C96.0454074,59.816003 107.455623,33.0230306 145.937694,23.0381468 C184.419765,13.053263 211.228681,23.4485219 238.728126,17.8660767 C266.227571,12.2836315 301.437202,-8.78445148 372.547105,4.1086392 C382.264427,5.87050793 393,10.1421319 393,17.7358038 Z" id="Combined-Shape" fill="#FFDDD1"></path>
                <g id="Group-4" transform="translate(212.673659, 142.637894) scale(-1, 1) rotate(12.000000) translate(-212.673659, -142.637894) translate(14.173659, 57.137894)">
                    <g id="Group-3" transform="translate(0.000000, 0.000000)">
                        <path d="M31.9601996,169.313634 C57.3874226,139.925263 75.1082293,120.75305 85.1226198,111.796995 C95.1370102,102.84094 111.249985,91.7549756 133.461543,78.5391019 C138.19328,87.1151012 145.676704,95.1658402 155.911816,102.691319 C179.632627,112.967009 220.976134,124.875266 232.334893,128.311442 C239.907399,130.602226 247.138923,136.240611 254.029465,145.226597 C252.000794,152.197025 251.661719,157.84257 253.012239,162.163232 C255.038019,168.644225 256.353633,170.401983 261.846404,169.46264 C264.783772,166.51176 268.587265,162.22465 273.256883,156.601311 C280.197893,160.309258 285.180581,161.278841 288.204946,159.51006 C292.741493,156.856887 294.510251,153.263266 293.99573,150.586096 C293.652716,148.801316 291.278942,143.450619 286.874406,134.534005 C289.017823,127.940539 290.219004,122.561115 290.477951,118.395732 C290.736898,114.23035 290.516569,110.037423 289.816963,105.816952 C292.402109,108.684206 295.513496,111.701441 299.151124,114.868657 C300.258268,115.639742 301.527025,116.246325 302.957395,116.688407 C304.386113,121.351522 306.005768,125.225867 307.816361,128.311442 C309.626953,131.397017 312.483281,135.750519 316.385344,141.371947 C318.174753,148.609329 320.600514,154.655367 323.662626,159.51006 C328.255794,166.792099 331.037764,168.270778 333.752286,169.46264 C336.466807,170.654501 340.698695,169.869013 342.109652,168.085226 C343.05029,166.896035 343.339037,164.922037 342.975892,162.163232 C346.340222,164.985839 349.694213,166.458863 353.037865,166.582303 C358.053343,166.767463 359.768983,162.163568 360.195671,159.773301 C360.480129,158.17979 358.803714,151.628423 355.166427,140.119199 C354.626514,136.626471 353.916993,133.418361 353.037865,130.494871 C352.158736,127.571381 350.94973,124.399541 349.410846,120.979351 C348.987135,114.984448 348.321727,109.673593 347.414621,105.046788 C345.934934,101.366069 344.455358,97.9000463 342.975892,94.6487212 L354.927132,104.157567 C358.240193,108.354345 360.413955,111.019075 361.448418,112.151757 C369.050156,119.607043 372.884558,124.097959 380.066294,126.13381 C387.248029,128.169661 393.110339,126.371997 396.998028,122.232098 C396.998028,116.688407 388.980757,106.155909 384.766222,100.355509 C381.956532,96.4885762 377.786388,92.0838332 372.255788,87.1412804 C370.45036,82.9679138 368.513803,79.5627789 366.446117,76.9258757 C364.378432,74.2889725 361.453699,71.1185341 357.671921,67.4145606 C349.669221,60.298854 342.558125,55.1008416 336.338631,51.8205235 C330.119138,48.5402053 317.236874,43.751971 297.691839,37.4558204 C278.028215,28.2206232 266.326605,23.6030246 262.58701,23.6030246 C244.166689,20.2027032 227.363438,17.1225465 212.177257,14.3625545 C196.649504,10.1238697 183.47914,6.82776995 172.666164,4.47425519 C138.452578,-1.69388113 130.371796,-0.764230692 100.86115,2.92903254 C95.2990842,3.88442929 88.7773711,5.97252473 81.2960109,9.19331887 L55.1567689,19.7407008 C37.1903433,25.2541142 22.5821508,28.7727713 11.3321914,30.2966723 C1.20558427,32.2916999 -1.6395259,32.8964467 2.79686085,32.1109128 L31.9601996,169.313634 Z" id="Path-36" fill="#8D5524"></path>
                        <path d="M263.851875,111.655784 C261.0518,108.736444 257.168063,105.678094 252.200663,102.480732 C247.233262,99.2833713 243.349525,97.2854185 240.549451,96.4868741 C244.059768,96.6401219 246.615412,96.6401219 248.216383,96.4868741 C249.817353,96.3336263 252.019365,95.9075987 254.82242,95.2087912 C255.297186,96.3239536 255.996746,97.6170108 256.921099,99.0879629 C257.428998,100.297052 259.317635,101.944925 262.58701,104.03158 L263.851875,111.655784 Z" id="Path-72" fill="#673D17"></path>
                        <path d="M286.874406,134.534005 C282.605956,128.875633 278.722547,124.639282 275.224178,121.824954 C272.324673,118.797361 268.533905,115.407638 263.851875,111.655784 C267.907202,114.285388 271.850724,117.296991 275.682439,120.690593 C279.514155,124.084195 283.315555,128.479105 287.086641,133.875323 L286.874406,134.534005 Z" id="Path-73" fill="#673D17"></path>
                        <path d="M273.256883,156.601311 C269.623808,154.826166 266.666535,153.263747 264.385065,151.914056 C262.103594,150.564365 258.651728,148.335212 254.029465,145.226597 C257.213895,147.768233 259.798232,149.797607 261.782476,151.314722 C263.76672,152.831836 267.353712,154.86121 272.543451,157.402846 L273.256883,156.601311 Z" id="Path-74" fill="#673D17"></path>
                        <path d="M262.58701,104.03158 L272.162158,99.4456657 C268.766669,101.569978 266.73801,102.898852 266.076181,103.432288 C263.851875,105.225081 263.043707,107.242109 263.043707,107.122085 C263.043707,106.932164 262.891475,105.901996 262.58701,104.03158 Z" id="Path-75" fill="#673D17"></path>
                        <path d="M229.363605,72.4115939 C230.494482,78.366313 231.775525,82.9507073 233.206734,86.1647767 C234.637943,89.3788461 237.085515,92.8195453 240.549451,96.4868741 C235.409082,92.2796334 232.325247,88.429278 231.297947,84.9358079 C230.270648,81.4423377 229.625867,77.2675997 229.363605,72.4115939 Z" id="Path-76" fill="#673D17"></path>
                        <path d="M261.900932,82.836473 C267.0139,82.4862516 271.389381,81.5993687 275.027373,80.1758242 C276.836046,83.9717386 278.720108,87.568273 280.679558,90.9654275 C282.639009,94.362582 285.684811,99.3130901 289.816963,105.816952 C284.077061,97.4260113 280.346937,91.9356507 278.626593,89.3458702 C276.906248,86.7560897 275.535068,84.3722035 274.513051,82.1942116 C269.429865,82.8372774 264.383941,83.2143643 259.375281,83.3254724 C254.366621,83.4365804 249.761674,83.2735807 245.56044,82.836473" id="Path-77" fill="#673D17"></path>
                        <path d="M259.340659,72.9903971 C264.361537,75.2071466 269.354208,76.3583021 274.318671,76.4438636 C279.283135,76.529425 284.812414,75.559613 290.906508,73.5344276 C293.498386,75.4132578 297.638455,76.8480043 303.326713,77.838667 C309.014971,78.8293298 318.916476,79.8458542 333.031227,80.8882403 C335.243273,85.5310466 336.971334,88.6024671 338.215409,90.1025016 C339.459485,91.6025361 341.046312,93.1179427 342.975892,94.6487212 C341.609733,93.3123088 340.210069,91.5004601 338.776902,89.2131753 C337.343734,86.9258904 335.577023,83.6843195 333.476771,79.4884625 C327.391839,79.4884625 319.875784,78.9385307 310.928607,77.838667 C301.98143,76.7388034 295.118009,74.5947788 290.338344,71.4065934 C287.18209,73.8748538 283.100506,75.2368963 278.093591,75.4927208 C273.086677,75.7485454 266.8357,74.9144375 259.340659,72.9903971 Z" id="Path-78" fill="#673D17"></path>
                        <path d="M285.648352,76.4175824 C289.477933,80.6055623 293.744064,84.4920254 298.446745,88.0769717 C303.149426,91.6619181 307.998182,94.8539544 312.993012,97.6530805 C316.802501,102.491513 319.792153,108.594113 321.961968,115.960882 C327.871661,125.483487 332.215354,134.880556 333.384739,137.541902 C335.056526,141.346641 336.223999,146.299115 336.887159,152.399326 C337.878147,153.613538 338.791168,154.884335 339.626223,156.211718 C340.461277,157.539102 341.577834,159.522939 342.975892,162.163232 C339.529776,153.581296 338.020407,147.935751 338.447787,145.226597 C337.221912,142.899995 335.087077,139.80326 333.384739,135.707741 C332.490445,133.556229 331.224651,129.741653 329.587358,124.264014 C326.501169,119.543084 323.478254,114.574957 320.518612,109.359631 C318.814256,105.498927 317.135059,101.41521 315.481022,97.10848 C311.430354,95.3766281 306.527753,92.5898316 300.77322,88.7480905 C295.018687,84.9063493 289.977064,80.79618 285.648352,76.4175824 Z" id="Path-79" fill="#673D17"></path>
                        <path d="M231.78022,85.6464999 C234.700839,86.1694081 239.50274,84.7357507 246.185922,81.3455277 C252.869104,77.9553047 258.071565,74.241532 261.793307,70.2042098 C258.431211,74.7645148 254.134342,78.4782874 248.9027,81.3455277 C243.671058,84.212768 238.391638,86.5165984 233.064442,88.257019 L231.78022,85.6464999 Z" id="Path-80" fill="#673D17"></path>
                        <path d="M127.01472,68.4745134 C123.091684,63.7587436 118.738622,56.5497903 113.955534,46.8476534 C117.830114,57.7411175 122.183176,65.7911893 127.01472,70.9978686 C129.247151,73.4036325 130.964465,75.4651411 132.364123,77.3297975 C132.4036,77.3823898 132.60496,77.6858124 132.590147,78.2406803 C132.585661,78.4087324 132.510319,78.7127459 132.364123,79.1527206 L133.461543,78.5391019 C134.035728,79.5706448 134.526439,80.4087443 134.933675,81.0534001 C135.051815,81.2404157 135.621407,82.0728653 136.642452,83.5507488 C137.646885,85.5864935 139.467805,88.0365365 142.105212,90.9008779 C144.74262,93.7652194 149.344821,97.6953664 155.911816,102.691319 C150.049688,97.4479859 146.003481,93.341046 143.773196,90.3704993 C141.54291,87.3999526 140.038877,84.8078417 139.261098,82.5941665 C137.410905,80.771016 133.328779,76.064465 127.01472,68.4745134 Z" id="Path-81" fill="#673D17"></path>
                        <path d="M300.664183,115.775922 C302.691472,115.833478 304.229661,115.607539 305.278751,115.098107 C306.32784,114.588675 307.658092,113.622252 309.269506,112.19884 C308.154843,113.756759 307.241624,114.94912 306.52985,115.775922 C305.818076,116.602724 304.850347,117.595284 303.626664,118.753602 L302.957395,116.688407 C302.503239,116.549499 302.142562,116.426884 301.875363,116.320564 C301.608164,116.214244 301.204437,116.032696 300.664183,115.775922 Z" id="Path-71" fill="#673D17"></path>
                        <path d="M315.481022,140.046377 C316.156821,140.386145 317.075285,140.605945 318.236414,140.705776 C319.397543,140.805608 321.035557,140.805608 323.150454,140.705776 C322.091081,141.108623 321.095034,141.470072 320.162312,141.790124 C319.229591,142.110176 318.039989,142.231468 316.593507,142.154 L316.385344,141.371947 L315.481022,140.046377 Z" id="Path-82" fill="#673D17"></path>
                        <path d="M337.997835,144.67066 C338.422623,145.189685 339.006789,145.449198 339.750335,145.449198 C340.49388,145.449198 341.883538,145.155176 343.919306,144.567132 C342.3023,145.307718 341.081256,145.821122 340.256174,146.107341 C339.306493,146.436784 338.638106,146.560317 338.251014,146.477942 L337.997835,144.67066 Z" id="Path-83" fill="#673D17"></path>
                        <path d="M326.989011,121.986745 C328.860277,122.209713 330.372633,122.209713 331.526078,121.986745 C332.679523,121.763777 334.810743,121.189441 337.919739,120.263736 C335.174924,121.274858 333.179964,122.095571 331.934859,122.725877 C330.689754,123.356182 329.896819,124.419226 329.556053,125.915009 L326.989011,121.986745 Z" id="Path-84" fill="#673D17"></path>
                        <path d="M312.047932,95.9205152 C313.076056,96.1550751 314.158376,96.0701824 315.294891,95.6658371 C316.431406,95.2614917 318.088754,94.3716754 320.266933,92.996388 L315.294891,97.3131891 L312.047932,95.9205152 Z" id="Path-85" fill="#673D17"></path>
                        <path d="M333.197998,79.5089024 C333.791006,79.5201283 334.675829,79.199691 335.852468,78.5475906 C337.029106,77.8954901 338.590522,76.904893 340.536714,75.5757992 C338.571722,77.0743118 337.187476,78.2674708 336.383974,79.155276 C335.580473,80.0430812 335.041744,81.0610437 334.767788,82.2091634 L333.197998,79.5089024 Z" id="Path-86" fill="#673D17"></path>
                        <path d="M353.313897,102.906313 C354.467473,103.016889 355.52533,102.96331 356.487468,102.745576 C357.449607,102.527841 359.150123,101.73439 361.589018,100.365223 C359.816176,101.560506 358.627776,102.353957 358.023819,102.745576 C357.419862,103.137194 356.645198,103.930645 355.699828,105.125928 L354.927132,104.157567 L353.313897,102.906313 Z" id="Path-87" fill="#673D17"></path>
                        <path d="M290.305591,71.4376559 C291.325739,70.6261118 292.216249,69.6429527 292.977119,68.4881786 C293.73799,67.3334044 294.661401,65.5761569 295.747352,63.2164359 C295.423134,65.1902422 294.94531,67.0450595 294.313881,68.7808878 C293.917803,69.869723 293.259494,70.9595172 292.338952,72.0502703 L293.308698,73.142234 C292.695969,72.8963288 292.208055,72.6703273 291.844955,72.4642297 C291.481854,72.2581321 290.968733,71.9159408 290.305591,71.4376559 Z" id="Path-88" fill="#673D17"></path>
                        <path d="M275.469258,80.1758242 C277.771853,79.639621 279.471136,79.1889266 280.567108,78.8237408 C281.66308,78.458555 283.238479,77.8181013 285.293306,76.9023796 C283.723891,78.0446511 282.324124,78.8207293 281.094004,79.2306144 C279.863884,79.6404994 277.988968,79.9555693 275.469258,80.1758242 Z" id="Path-89" fill="#673D17"></path>
                        <path d="M286.57127,76.18659 C287.967063,75.562137 288.906523,75.1152758 289.389649,74.8460063 C289.872776,74.5767369 290.347472,74.2354215 290.813738,73.8220602 C290.26338,74.4124763 289.692984,74.8722231 289.102549,75.2013005 C288.512114,75.530378 287.668354,75.8588078 286.57127,76.18659 Z" id="Path-90" fill="#673D17"></path>
                        <path d="M254.547337,95.2902228 C255.094608,95.1336235 255.825796,94.8976394 256.7409,94.5822705 C257.656004,94.2669017 258.819996,93.558268 260.232876,92.4563694 C259.137523,93.6365934 258.375723,94.3673773 257.947476,94.6487212 C257.519229,94.9300652 256.66016,95.364175 255.370268,95.9510508 L255.659128,96.9656308 L254.547337,95.2902228 Z" id="Path-91" fill="#673D17"></path>
                        <path d="M236.912383,130.135743 L240.065332,131.836142 C239.54489,131.276245 239.408002,130.709445 239.654669,130.135743 C239.901335,129.562041 240.686743,127.838583 242.010892,124.965371 C240.709824,127.34325 239.765431,128.830189 239.177715,129.426189 C238.589999,130.022189 237.834888,130.258707 236.912383,130.135743 Z" id="Path-92" fill="#673D17"></path>
                        <path d="M244.913169,97.3131891 C246.136978,97.4071852 247.265214,97.4071852 248.297875,97.3131891 C249.330536,97.2191931 251.228326,96.9437547 253.991243,96.4868741 C254.726264,97.9734554 255.688181,99.3971263 256.876993,100.757887 C258.065805,102.118648 259.863331,103.805003 262.26957,105.816952 C262.094026,106.21127 262.006253,106.648018 262.006253,107.127195 C262.006253,107.606371 262.094026,108.18571 262.26957,108.865212 C259.972332,106.759823 257.305689,104.696767 254.26964,102.676043 C251.233592,100.655319 248.114768,98.8677008 244.913169,97.3131891 Z" id="Path-93" fill="#FFDDD1"></path>
                    </g>
                    <path d="M278.601886,33.6035995 C276.457117,33.4121006 267.688701,31.5586452 259.340659,29.2245268 C253.015102,27.4558966 246.135205,24.8677475 238.700966,21.4600795 L254.547337,29.2245268 C265.73831,32.3735765 274.153035,34.1998212 279.791513,34.7032611 C285.429991,35.206701 291.396766,36.1242207 297.691839,37.4558204 C289.65871,35.3067398 283.295392,34.0226662 278.601886,33.6035995 Z" id="Path-95" fill="#865211"></path>
                </g>
            </g>
        </g>
    </g>
</svg>