<?xml version="1.0" encoding="UTF-8"?>
<svg width="30px" height="30px" viewBox="0 0 30 30" version="1.1" xmlns="http://www.w3.org/2000/svg" xmlns:xlink="http://www.w3.org/1999/xlink">
    <!-- Generator: Sketch 62 (91390) - https://sketch.com -->
    <title>Combined Shape</title>
    <desc>Created with Sketch.</desc>
    <g id="Page-1" stroke="none" stroke-width="1" fill="none" fill-rule="evenodd">
        <g id="iPhone-8" transform="translate(-219.000000, -3833.000000)" fill="#000000">
            <g id="Group-8" transform="translate(95.000000, 3539.000000)">
                <path d="M139,294 C147.284271,294 154,300.715729 154,309 C154,317.284271 147.284271,324 139,324 C130.715729,324 124,317.284271 124,309 C124,300.715729 130.715729,294 139,294 Z M144.153385,303.836846 C142.830044,302.703711 141.555392,302.510313 140.329427,303.256651 C139.103463,304.00299 138.58878,305.143891 138.785376,306.679353 C137.661409,306.551161 136.612162,306.271426 135.637633,305.840147 C134.663104,305.408867 133.598436,304.593504 132.443628,303.394058 C132.111715,304.201179 131.997792,304.91283 132.10186,305.529011 C132.205927,306.145193 132.589277,306.812979 133.251909,307.53237 C133.035993,307.545617 132.846789,307.53271 132.684297,307.493648 C132.521806,307.454587 132.303493,307.37448 132.029359,307.253326 C132.151702,308.089307 132.343443,308.681256 132.604582,309.029175 C132.865722,309.377093 133.447643,309.815901 134.350345,310.3456 C134.229862,310.434297 134.072077,310.482235 133.87699,310.489413 C133.681904,310.496591 133.442969,310.463251 133.160187,310.389391 C133.273666,310.951756 133.5126,311.386435 133.87699,311.693428 C134.24138,312.000421 134.891845,312.315047 135.828387,312.637307 C135.30651,313.083436 134.697581,313.402188 134.001601,313.593561 C133.305622,313.784934 132.493306,313.856982 131.564655,313.809704 C133.076636,314.784925 134.752915,315.237044 136.59349,315.16606 C139.354353,315.059583 140.046255,314.386907 141.16722,313.667929 C143.408588,312.230333 144.696678,309.695619 145.031488,306.063787 C145.252862,305.872706 145.452609,305.667201 145.630731,305.447273 C145.808853,305.227346 146.070704,304.862912 146.416284,304.353974 L146.416284,304.353974 L145.031488,304.69133 C145.30219,304.432137 145.501937,304.202097 145.630731,304.001209 C145.759525,303.80032 145.885003,303.522677 146.007166,303.16828 L146.007166,303.16828 Z" id="Combined-Shape"></path>
            </g>
        </g>
    </g>
</svg>