<?xml version="1.0" encoding="UTF-8"?>
<svg width="30px" height="30px" viewBox="0 0 30 30" version="1.1" xmlns="http://www.w3.org/2000/svg" xmlns:xlink="http://www.w3.org/1999/xlink">
    <!-- Generator: Sketch 62 (91390) - https://sketch.com -->
    <title>Combined Shape</title>
    <desc>Created with Sketch.</desc>
    <g id="Page-1" stroke="none" stroke-width="1" fill="none" fill-rule="evenodd">
        <g id="iPhone-8" transform="translate(-127.000000, -3833.000000)" fill="#000000">
            <g id="Group-8" transform="translate(95.000000, 3539.000000)">
                <path d="M47,294 C55.2842712,294 62,300.738377 62,309.050587 C62,316.769313 56.2090286,323.130923 48.7486047,324 L48.7486337,313.818105 L52.6085498,313.818105 L53.2102702,309.971921 L48.6432664,309.971921 C48.4392444,307.690921 48.6197614,306.166991 49.1848176,305.400133 C49.7498738,304.633274 51.0916913,304.40763 53.2102702,304.723199 L53.2102702,304.723199 L53.2102702,301.203818 C49.6889083,300.730354 47.2361433,301.178745 45.8519754,302.54899 C45.8201483,302.578321 45.789559,302.610503 45.7582873,302.638583 C43.9829577,304.232706 44.4368755,309.861816 44.4368755,309.861816 L44.4368755,309.861816 L40.7284483,309.861816 L40.7284483,313.818105 L44.4368755,313.818105 L44.4364625,323.882241 C37.3734656,322.661868 32,316.485864 32,309.050587 C32,300.738377 38.7157288,294 47,294 Z" id="Combined-Shape"></path>
            </g>
        </g>
    </g>
</svg>