<?xml version="1.0" encoding="UTF-8"?>
<svg width="102px" height="12px" viewBox="0 0 102 12" version="1.1" xmlns="http://www.w3.org/2000/svg" xmlns:xlink="http://www.w3.org/1999/xlink">
    <!-- Generator: Sketch 62 (91390) - https://sketch.com -->
    <title>Primary Logo</title>
    <desc>Created with Sketch.</desc>
    <g id="Page-1" stroke="none" stroke-width="1" fill="none" fill-rule="evenodd">
        <g id="iPhone-8" transform="translate(-137.000000, -3903.000000)" fill="#000000" fill-rule="nonzero">
            <g id="Group-8" transform="translate(95.000000, 3539.000000)">
                <g id="Primary-Logo" transform="translate(42.000000, 364.000000)">
                    <g>
                        <path d="M100.491124,3.875 C101.325444,3.875 102,3.1908284 102,2.32174556 C102,1.45266272 101.325444,0.75 100.508876,0.75 C99.6568047,0.75 99,1.4341716 99,2.30325444 C99,3.1908284 99.6568047,3.875 100.491124,3.875 Z M99.8070652,11.6765176 C100.785326,11.1373802 102,10.0051917 102,8.45966454 C102,7.18370607 101.396739,6.375 100.369565,6.375 C99.5543478,6.375 99,6.96805112 99,7.90255591 C99,8.72923323 99.4891304,9.26837061 100.190217,9.26837061 C100.353261,9.26837061 100.467391,9.23242812 100.581522,9.23242812 C100.76087,9.23242812 100.891304,9.39416933 100.891304,9.60982428 C100.891304,10.3107029 100.336957,11.0654952 99.1141304,12 L99.8070652,11.6765176 Z" id=";"></path>
                        <path d="M5.1105,9.144 C5.8385,9.144 6.4985,9.016 7.0905,8.76 C7.6825,8.504 8.1785,8.132 8.5785,7.644 L8.5785,7.644 L7.3305,6.492 C6.7625,7.156 6.0585,7.488 5.2185,7.488 C4.6985,7.488 4.2345,7.374 3.8265,7.146 C3.4185,6.918 3.1005,6.6 2.8725,6.192 C2.6445,5.784 2.5305,5.32 2.5305,4.8 C2.5305,4.28 2.6445,3.816 2.8725,3.408 C3.1005,3 3.4185,2.682 3.8265,2.454 C4.2345,2.226 4.6985,2.112 5.2185,2.112 C6.0585,2.112 6.7625,2.44 7.3305,3.096 L7.3305,3.096 L8.5785,1.944 C8.1785,1.464 7.6845,1.096 7.0965,0.84 C6.5085,0.584 5.8505,0.456 5.1225,0.456 C4.2585,0.456 3.4805,0.642 2.7885,1.014 C2.0965,1.386 1.5525,1.902 1.1565,2.562 C0.7605,3.222 0.5625,3.968 0.5625,4.8 C0.5625,5.632 0.7605,6.378 1.1565,7.038 C1.5525,7.698 2.0965,8.214 2.7885,8.586 C3.4805,8.958 4.2545,9.144 5.1105,9.144 Z M12.8355,9 L12.8355,5.556 L16.6515,5.556 L16.6515,9 L18.5955,9 L18.5955,0.6 L16.6515,0.6 L16.6515,3.912 L12.8355,3.912 L12.8355,0.6 L10.8915,0.6 L10.8915,9 L12.8355,9 Z M25.6605,9.144 C26.5325,9.144 27.3165,8.956 28.0125,8.58 C28.7085,8.204 29.2565,7.686 29.6565,7.026 C30.0565,6.366 30.2565,5.624 30.2565,4.8 C30.2565,3.976 30.0565,3.234 29.6565,2.574 C29.2565,1.914 28.7085,1.396 28.0125,1.02 C27.3165,0.644 26.5325,0.456 25.6605,0.456 C24.7885,0.456 24.0025,0.644 23.3025,1.02 C22.6025,1.396 22.0545,1.914 21.6585,2.574 C21.2625,3.234 21.0645,3.976 21.0645,4.8 C21.0645,5.624 21.2625,6.366 21.6585,7.026 C22.0545,7.686 22.6025,8.204 23.3025,8.58 C24.0025,8.956 24.7885,9.144 25.6605,9.144 Z M25.6605,7.488 C25.1645,7.488 24.7165,7.374 24.3165,7.146 C23.9165,6.918 23.6025,6.6 23.3745,6.192 C23.1465,5.784 23.0325,5.32 23.0325,4.8 C23.0325,4.28 23.1465,3.816 23.3745,3.408 C23.6025,3 23.9165,2.682 24.3165,2.454 C24.7165,2.226 25.1645,2.112 25.6605,2.112 C26.1565,2.112 26.6045,2.226 27.0045,2.454 C27.4045,2.682 27.7185,3 27.9465,3.408 C28.1745,3.816 28.2885,4.28 28.2885,4.8 C28.2885,5.32 28.1745,5.784 27.9465,6.192 C27.7185,6.6 27.4045,6.918 27.0045,7.146 C26.6045,7.374 26.1565,7.488 25.6605,7.488 Z M36.7935,9.144 C37.6655,9.144 38.4495,8.956 39.1455,8.58 C39.8415,8.204 40.3895,7.686 40.7895,7.026 C41.1895,6.366 41.3895,5.624 41.3895,4.8 C41.3895,3.976 41.1895,3.234 40.7895,2.574 C40.3895,1.914 39.8415,1.396 39.1455,1.02 C38.4495,0.644 37.6655,0.456 36.7935,0.456 C35.9215,0.456 35.1355,0.644 34.4355,1.02 C33.7355,1.396 33.1875,1.914 32.7915,2.574 C32.3955,3.234 32.1975,3.976 32.1975,4.8 C32.1975,5.624 32.3955,6.366 32.7915,7.026 C33.1875,7.686 33.7355,8.204 34.4355,8.58 C35.1355,8.956 35.9215,9.144 36.7935,9.144 Z M36.7935,7.488 C36.2975,7.488 35.8495,7.374 35.4495,7.146 C35.0495,6.918 34.7355,6.6 34.5075,6.192 C34.2795,5.784 34.1655,5.32 34.1655,4.8 C34.1655,4.28 34.2795,3.816 34.5075,3.408 C34.7355,3 35.0495,2.682 35.4495,2.454 C35.8495,2.226 36.2975,2.112 36.7935,2.112 C37.2895,2.112 37.7375,2.226 38.1375,2.454 C38.5375,2.682 38.8515,3 39.0795,3.408 C39.3075,3.816 39.4215,4.28 39.4215,4.8 C39.4215,5.32 39.3075,5.784 39.0795,6.192 C38.8515,6.6 38.5375,6.918 38.1375,7.146 C37.7375,7.374 37.2895,7.488 36.7935,7.488 Z M46.6185,9.144 C47.3865,9.144 48.0385,9.028 48.5745,8.796 C49.1105,8.564 49.5125,8.25 49.7805,7.854 C50.0485,7.458 50.1825,7.02 50.1825,6.54 C50.1825,5.98 50.0365,5.536 49.7445,5.208 C49.4525,4.88 49.1025,4.64 48.6945,4.488 C48.2865,4.336 47.7625,4.184 47.1225,4.032 C46.5065,3.896 46.0485,3.758 45.7485,3.618 C45.4485,3.478 45.2985,3.264 45.2985,2.976 C45.2985,2.688 45.4285,2.456 45.6885,2.28 C45.9485,2.104 46.3505,2.016 46.8945,2.016 C47.6705,2.016 48.4465,2.236 49.2225,2.676 L49.2225,2.676 L49.8225,1.2 C49.4385,0.96 48.9905,0.776 48.4785,0.648 C47.9665,0.52 47.4425,0.456 46.9065,0.456 C46.1385,0.456 45.4885,0.572 44.9565,0.804 C44.4245,1.036 44.0265,1.35 43.7625,1.746 C43.4985,2.142 43.3665,2.584 43.3665,3.072 C43.3665,3.632 43.5125,4.08 43.8045,4.416 C44.0965,4.752 44.4465,4.996 44.8545,5.148 C45.2625,5.3 45.7865,5.452 46.4265,5.604 C46.8425,5.7 47.1725,5.788 47.4165,5.868 C47.6605,5.948 47.8605,6.054 48.0165,6.186 C48.1725,6.318 48.2505,6.484 48.2505,6.684 C48.2505,6.956 48.1185,7.174 47.8545,7.338 C47.5905,7.502 47.1825,7.584 46.6305,7.584 C46.1345,7.584 45.6385,7.504 45.1425,7.344 C44.6465,7.184 44.2185,6.972 43.8585,6.708 L43.8585,6.708 L43.1985,8.172 C43.5745,8.46 44.0725,8.694 44.6925,8.874 C45.3125,9.054 45.9545,9.144 46.6185,9.144 Z M59.0235,9 L59.0235,7.44 L54.4515,7.44 L54.4515,5.496 L58.3515,5.496 L58.3515,3.984 L54.4515,3.984 L54.4515,2.16 L58.8675,2.16 L58.8675,0.6 L52.5195,0.6 L52.5195,9 L59.0235,9 Z M72.1335,9 L72.1335,7.416 L67.9215,7.416 L67.9215,0.6 L65.9775,0.6 L65.9775,9 L72.1335,9 Z M76.1745,9 L76.1745,0.6 L74.2305,0.6 L74.2305,9 L76.1745,9 Z M81.1155,9 L81.1155,5.94 L85.0035,5.94 L85.0035,4.38 L81.1155,4.38 L81.1155,2.16 L85.5195,2.16 L85.5195,0.6 L79.1715,0.6 L79.1715,9 L81.1155,9 Z M94.3485,9 L94.3485,7.44 L89.7765,7.44 L89.7765,5.496 L93.6765,5.496 L93.6765,3.984 L89.7765,3.984 L89.7765,2.16 L94.1925,2.16 L94.1925,0.6 L87.8445,0.6 L87.8445,9 L94.3485,9 Z" id="CHOOSELIFE"></path>
                    </g>
                </g>
            </g>
        </g>
    </g>
</svg>