<?xml version="1.0" encoding="UTF-8"?>
<svg width="136px" height="16px" viewBox="0 0 136 16" version="1.1" xmlns="http://www.w3.org/2000/svg" xmlns:xlink="http://www.w3.org/1999/xlink">
    <!-- Generator: Sketch 62 (91390) - https://sketch.com -->
    <title>Primary Logo</title>
    <desc>Created with Sketch.</desc>
    <g id="Page-1" stroke="none" stroke-width="1" fill="none" fill-rule="evenodd">
        <g id="Landing-Page" transform="translate(-60.000000, -35.000000)" fill="#000000" fill-rule="nonzero">
            <g id="Group-8" transform="translate(0.000000, 1.000000)">
                <g id="Primary-Logo" transform="translate(60.000000, 34.000000)">
                    <path d="M133.988166,5.16666667 C135.100592,5.16666667 136,4.25443787 136,3.09566075 C136,1.93688363 135.100592,1 134.011834,1 C132.87574,1 132,1.9122288 132,3.07100592 C132,4.25443787 132.87574,5.16666667 133.988166,5.16666667 Z M133.076087,15.5686901 C134.380435,14.8498403 136,13.3402556 136,11.2795527 C136,9.57827476 135.195652,8.5 133.826087,8.5 C132.73913,8.5 132,9.29073482 132,10.5367412 C132,11.6389776 132.652174,12.3578275 133.586957,12.3578275 C133.804348,12.3578275 133.956522,12.3099042 134.108696,12.3099042 C134.347826,12.3099042 134.521739,12.5255591 134.521739,12.813099 C134.521739,13.7476038 133.782609,14.7539936 132.152174,16 L133.076087,15.5686901 Z" id=";"></path>
                    <path d="M6.814,12.192 C7.78466667,12.192 8.66466667,12.0213333 9.454,11.68 C10.2433333,11.3386667 10.9046667,10.8426667 11.438,10.192 L11.438,10.192 L9.774,8.656 C9.01666667,9.54133333 8.078,9.984 6.958,9.984 C6.26466667,9.984 5.646,9.832 5.102,9.528 C4.558,9.224 4.134,8.8 3.83,8.256 C3.526,7.712 3.374,7.09333333 3.374,6.4 C3.374,5.70666667 3.526,5.088 3.83,4.544 C4.134,4 4.558,3.576 5.102,3.272 C5.646,2.968 6.26466667,2.816 6.958,2.816 C8.078,2.816 9.01666667,3.25333333 9.774,4.128 L9.774,4.128 L11.438,2.592 C10.9046667,1.952 10.246,1.46133333 9.462,1.12 C8.678,0.778666667 7.80066667,0.608 6.83,0.608 C5.678,0.608 4.64066667,0.856 3.718,1.352 C2.79533333,1.848 2.07,2.536 1.542,3.416 C1.014,4.296 0.75,5.29066667 0.75,6.4 C0.75,7.50933333 1.014,8.504 1.542,9.384 C2.07,10.264 2.79533333,10.952 3.718,11.448 C4.64066667,11.944 5.67266667,12.192 6.814,12.192 Z M17.114,12 L17.114,7.408 L22.202,7.408 L22.202,12 L24.794,12 L24.794,0.8 L22.202,0.8 L22.202,5.216 L17.114,5.216 L17.114,0.8 L14.522,0.8 L14.522,12 L17.114,12 Z M34.214,12.192 C35.3766667,12.192 36.422,11.9413333 37.35,11.44 C38.278,10.9386667 39.0086667,10.248 39.542,9.368 C40.0753333,8.488 40.342,7.49866667 40.342,6.4 C40.342,5.30133333 40.0753333,4.312 39.542,3.432 C39.0086667,2.552 38.278,1.86133333 37.35,1.36 C36.422,0.858666667 35.3766667,0.608 34.214,0.608 C33.0513333,0.608 32.0033333,0.858666667 31.07,1.36 C30.1366667,1.86133333 29.406,2.552 28.878,3.432 C28.35,4.312 28.086,5.30133333 28.086,6.4 C28.086,7.49866667 28.35,8.488 28.878,9.368 C29.406,10.248 30.1366667,10.9386667 31.07,11.44 C32.0033333,11.9413333 33.0513333,12.192 34.214,12.192 Z M34.214,9.984 C33.5526667,9.984 32.9553333,9.832 32.422,9.528 C31.8886667,9.224 31.47,8.8 31.166,8.256 C30.862,7.712 30.71,7.09333333 30.71,6.4 C30.71,5.70666667 30.862,5.088 31.166,4.544 C31.47,4 31.8886667,3.576 32.422,3.272 C32.9553333,2.968 33.5526667,2.816 34.214,2.816 C34.8753333,2.816 35.4726667,2.968 36.006,3.272 C36.5393333,3.576 36.958,4 37.262,4.544 C37.566,5.088 37.718,5.70666667 37.718,6.4 C37.718,7.09333333 37.566,7.712 37.262,8.256 C36.958,8.8 36.5393333,9.224 36.006,9.528 C35.4726667,9.832 34.8753333,9.984 34.214,9.984 Z M49.058,12.192 C50.2206667,12.192 51.266,11.9413333 52.194,11.44 C53.122,10.9386667 53.8526667,10.248 54.386,9.368 C54.9193333,8.488 55.186,7.49866667 55.186,6.4 C55.186,5.30133333 54.9193333,4.312 54.386,3.432 C53.8526667,2.552 53.122,1.86133333 52.194,1.36 C51.266,0.858666667 50.2206667,0.608 49.058,0.608 C47.8953333,0.608 46.8473333,0.858666667 45.914,1.36 C44.9806667,1.86133333 44.25,2.552 43.722,3.432 C43.194,4.312 42.93,5.30133333 42.93,6.4 C42.93,7.49866667 43.194,8.488 43.722,9.368 C44.25,10.248 44.9806667,10.9386667 45.914,11.44 C46.8473333,11.9413333 47.8953333,12.192 49.058,12.192 Z M49.058,9.984 C48.3966667,9.984 47.7993333,9.832 47.266,9.528 C46.7326667,9.224 46.314,8.8 46.01,8.256 C45.706,7.712 45.554,7.09333333 45.554,6.4 C45.554,5.70666667 45.706,5.088 46.01,4.544 C46.314,4 46.7326667,3.576 47.266,3.272 C47.7993333,2.968 48.3966667,2.816 49.058,2.816 C49.7193333,2.816 50.3166667,2.968 50.85,3.272 C51.3833333,3.576 51.802,4 52.106,4.544 C52.41,5.088 52.562,5.70666667 52.562,6.4 C52.562,7.09333333 52.41,7.712 52.106,8.256 C51.802,8.8 51.3833333,9.224 50.85,9.528 C50.3166667,9.832 49.7193333,9.984 49.058,9.984 Z M62.158,12.192 C63.182,12.192 64.0513333,12.0373333 64.766,11.728 C65.4806667,11.4186667 66.0166667,11 66.374,10.472 C66.7313333,9.944 66.91,9.36 66.91,8.72 C66.91,7.97333333 66.7153333,7.38133333 66.326,6.944 C65.9366667,6.50666667 65.47,6.18666667 64.926,5.984 C64.382,5.78133333 63.6833333,5.57866667 62.83,5.376 C62.0086667,5.19466667 61.398,5.01066667 60.998,4.824 C60.598,4.63733333 60.398,4.352 60.398,3.968 C60.398,3.584 60.5713333,3.27466667 60.918,3.04 C61.2646667,2.80533333 61.8006667,2.688 62.526,2.688 C63.5606667,2.688 64.5953333,2.98133333 65.63,3.568 L65.63,3.568 L66.43,1.6 C65.918,1.28 65.3206667,1.03466667 64.638,0.864 C63.9553333,0.693333333 63.2566667,0.608 62.542,0.608 C61.518,0.608 60.6513333,0.762666667 59.942,1.072 C59.2326667,1.38133333 58.702,1.8 58.35,2.328 C57.998,2.856 57.822,3.44533333 57.822,4.096 C57.822,4.84266667 58.0166667,5.44 58.406,5.888 C58.7953333,6.336 59.262,6.66133333 59.806,6.864 C60.35,7.06666667 61.0486667,7.26933333 61.902,7.472 C62.4566667,7.6 62.8966667,7.71733333 63.222,7.824 C63.5473333,7.93066667 63.814,8.072 64.022,8.248 C64.23,8.424 64.334,8.64533333 64.334,8.912 C64.334,9.27466667 64.158,9.56533333 63.806,9.784 C63.454,10.0026667 62.91,10.112 62.174,10.112 C61.5126667,10.112 60.8513333,10.0053333 60.19,9.792 C59.5286667,9.57866667 58.958,9.296 58.478,8.944 L58.478,8.944 L57.598,10.896 C58.0993333,11.28 58.7633333,11.592 59.59,11.832 C60.4166667,12.072 61.2726667,12.192 62.158,12.192 Z M78.698,12 L78.698,9.92 L72.602,9.92 L72.602,7.328 L77.802,7.328 L77.802,5.312 L72.602,5.312 L72.602,2.88 L78.49,2.88 L78.49,0.8 L70.026,0.8 L70.026,12 L78.698,12 Z M96.178,12 L96.178,9.888 L90.562,9.888 L90.562,0.8 L87.97,0.8 L87.97,12 L96.178,12 Z M101.566,12 L101.566,0.8 L98.974,0.8 L98.974,12 L101.566,12 Z M108.154,12 L108.154,7.92 L113.338,7.92 L113.338,5.84 L108.154,5.84 L108.154,2.88 L114.026,2.88 L114.026,0.8 L105.562,0.8 L105.562,12 L108.154,12 Z M125.798,12 L125.798,9.92 L119.702,9.92 L119.702,7.328 L124.902,7.328 L124.902,5.312 L119.702,5.312 L119.702,2.88 L125.59,2.88 L125.59,0.8 L117.126,0.8 L117.126,12 L125.798,12 Z" id="CHOOSELIFE"></path>
                </g>
            </g>
        </g>
    </g>
</svg>