<?xml version="1.0" encoding="UTF-8"?>
<svg width="346px" height="139px" viewBox="0 0 346 139" version="1.1" xmlns="http://www.w3.org/2000/svg" xmlns:xlink="http://www.w3.org/1999/xlink">
    <!-- Generator: Sketch 62 (91390) - https://sketch.com -->
    <title>Path 6</title>
    <desc>Created with Sketch.</desc>
    <g id="Page-1" stroke="none" stroke-width="1" fill="none" fill-rule="evenodd">
        <g id="Landing-Page" transform="translate(-1094.000000, -5640.000000)" fill="#D4C2E1">
            <g id="Path-6-+-Combined-Shape-+-Path-6-+-Path-6-+-Path-6-Mask" transform="translate(0.000000, 5299.000000)">
                <path d="M1119.9237,423.845336 C1181.64649,446.310594 1423.53045,534.349155 1444.87715,542.120144 C1443.38626,522.564955 1430.4188,503.348191 1433.7822,489.240508 C1440.45521,461.250768 1455.94819,451.281251 1435.00543,417.848542 C1414.06267,384.415833 1370.49557,386.940353 1357.43713,377.044424 C1344.3787,367.148495 1335.72365,350.102026 1296.98762,341.795702 C1258.25158,333.489378 1236.75005,357.15377 1209.06913,352.50979 C1191.47299,349.557718 1178.93956,336.938867 1153.75628,330.891098 C1147.38063,348.408045 1135.75909,380.337975 1119.9237,423.845336 Z" id="Path-6" transform="translate(1282.752478, 436.505621) scale(-1, 1) rotate(-20.000000) translate(-1282.752478, -436.505621) "></path>
            </g>
        </g>
    </g>
</svg>