<?xml version="1.0" encoding="UTF-8"?>
<svg width="361px" height="316px" viewBox="0 0 361 316" version="1.1" xmlns="http://www.w3.org/2000/svg" xmlns:xlink="http://www.w3.org/1999/xlink">
    <!-- Generator: Sketch 62 (91390) - https://sketch.com -->
    <title>second-hand-baby-blue</title>
    <desc>Created with Sketch.</desc>
    <g id="Page-1" stroke="none" stroke-width="1" fill="none" fill-rule="evenodd">
        <g id="Landing-Page" transform="translate(0.000000, -735.000000)">
            <g id="second-hand-baby-blue" transform="translate(-45.000000, 693.000000)">
                <path d="M45.3387287,44.5302707 C45,84.4186407 45.3387287,279.852865 45.3387287,356 C124.306207,366.940237 133.596791,312.682547 167.089745,312.682547 C200.582699,312.682547 281.505474,349.785494 328.023465,312.682547 C374.541457,275.579599 361.637765,252.335962 367.804045,223.967155 C373.970324,195.598349 391.42126,185.730085 382.519417,150.25573 C373.617573,114.781374 339.838223,111.219503 327.771416,101.189553 C315.704609,91.1596027 310.36796,74.0118933 274.573451,65.5930761 C238.778942,57.1742589 199.311732,74.0118933 173.73283,69.3050197 C148.153928,64.5981462 111.482365,33.6593807 45.3387287,44.5302707 Z" id="Path-6" fill="#BDD7EA"></path>
                <g id="Group-2" transform="translate(230.495317, 184.892744) scale(-1, 1) rotate(23.000000) translate(-230.495317, -184.892744) translate(29.495317, 69.392744)">
                    <path d="M401.053171,112.056706 L362.272182,107.422857 L316.533079,107.422857 C314.487966,107.107539 308.593781,111.543008 298.850525,120.729264 C284.235642,134.508648 284.674389,135.111068 266.98873,143.799606 C256.705794,148.055143 248.501091,150.842632 242.374621,152.162071 C239.029666,155.595861 235.954959,158.047864 233.150501,159.518081 C230.346043,160.988299 226.541419,162.142737 221.73663,162.981394 C218.663264,168.036523 216.559284,171.650356 215.42469,173.822893 C214.290095,175.99543 212.237909,178.655089 209.268129,181.80187 L208.766921,212.671043 C207.0839,217.68242 204.099629,220.188109 199.814109,220.188109 C193.38583,220.188109 189.344735,211.227819 187.169119,205.074237 C185.718708,200.971849 184.739155,191.309065 184.230462,176.085885 L187.169119,152.162071 C185.064044,155.662116 182.652819,158.830346 179.935442,161.666761 C177.218065,164.503175 173.491262,167.741858 168.755032,171.382809 C168.591378,176.060688 168.115156,179.533708 167.326365,181.80187 C166.537574,184.070031 164.416859,188.064481 160.964221,193.785219 C160.198522,204.093866 159.276073,211.213155 158.196874,215.143088 C156.578075,221.037987 156.888392,225.304659 151.649964,227.703326 C148.157679,229.302438 144.294607,228.146579 140.06075,224.235752 C135.209315,228.216154 131.470958,230.376206 128.845679,230.715908 C124.90776,231.225461 120.353915,228.512563 118.040482,225.706876 C115.727049,222.901189 111.049526,180.575306 110.801763,176.085885 C110.636587,173.092938 111.895591,168.724775 114.578774,162.981394 C108.345538,161.263318 103.943636,159.543492 101.373067,157.821916 C97.5172134,155.239552 97.5172134,152.162071 98.2099853,146.957743 C99.3897933,143.399071 109.152275,134.656244 127.497429,120.729264 L140.06075,107.867789 C134.384255,105.611196 130.645898,103.910523 128.845679,102.76577 C127.04546,101.621017 124.822094,99.5300937 122.17558,96.4930004 C114.844989,95.7884616 107.446361,94.5677409 99.9796973,92.8308385 C92.5130335,91.093936 85.5464813,88.9730148 79.0800408,86.4680749 C73.8301086,89.6126076 68.9189802,91.9296228 64.3466555,93.4191207 C59.7743308,94.9086186 54.427592,95.9332452 48.306439,96.4930004 C47.0817847,97.7144911 44.1180414,99.0121323 39.4152091,100.385924 C25.8441109,101.795758 18.4008007,101.350977 10.6025752,99.4381927 C2.80434969,97.5254088 0.925656679,93.4777675 0.149652631,90.7546911 C-0.367683402,88.9393068 0.456269568,86.8154773 2.62151154,84.3832027 L22.4218787,79.794562 C26.644113,77.3900746 30.5614072,75.440416 34.1737611,73.945586 C37.786115,72.450756 41.8846805,71.0833678 46.4694576,69.8434214 C54.2607062,65.3511963 61.7889496,62.2259867 69.0541879,60.4677928 C85.9816646,56.9994803 103.711505,56.0265632 122.243708,57.5490414 C124.939598,58.0943486 129.199848,57.567776 135.024457,55.9693237 C141.061344,55.28089 146.41603,54.5702824 151.088515,53.837501 C160.59904,50.3913462 170.420379,46.4927912 180.552534,42.1418362 C191.071106,38.451303 201.522845,35.4529525 211.907751,33.1467847 C216.012125,32.3408165 220.559343,30.9234026 225.549405,28.894543 C230.539466,26.8656834 242.938877,24.8377244 262.747637,22.810666 C275.465808,18.7958025 284.124391,16.2113996 288.723385,15.0574575 C293.322379,13.9035153 305.141788,11.8855778 324.181611,9.00364478 L353.582046,0.221743896 L401.053171,112.056706 Z" id="Path-35" fill="#FFEBD3"></path>
                    <path d="M48.2986299,96.5741995 C44.8692542,95.6613039 42.7503365,93.4231772 41.9418768,89.8598195 C41.1334172,86.2964618 40.7057848,83.8486874 40.6589797,82.5164965 C40.6589797,85.8778566 40.6589797,88.5336429 40.6589797,90.4838554 C40.6589797,92.434068 42.0813229,95.0898543 44.9260093,98.4512144 L48.2986299,96.5741995 Z" id="Path-37" fill="#DABE9D"></path>
                    <path d="M79.0800408,86.4680749 C78.4305376,83.6318028 78.105786,80.8783435 78.105786,78.207697 C78.105786,75.5370505 78.5003702,72.1703281 79.2895384,68.1075299 C77.7089783,72.9924062 76.7397627,76.3591286 76.3818917,78.207697 C76.0240207,80.0562654 75.8128735,83.4128037 75.7484503,88.277312 L79.0800408,86.4680749 Z" id="Path-38" fill="#DABE9D"></path>
                    <path d="M163.207379,175.916504 C161.928442,173.630386 161.288974,171.152004 161.288974,168.481358 C161.288974,165.810711 161.572344,162.819294 162.139082,159.507107 C161.007751,163.372281 160.380487,166.241858 160.25729,168.115838 C160.134092,169.989819 160.404796,173.070735 161.069402,177.358588 L163.207379,175.916504 Z" id="Path-38" fill="#DABE9D" transform="translate(161.717885, 168.432847) rotate(-56.000000) translate(-161.717885, -168.432847) "></path>
                    <path d="M156.874562,197.292888 C156.390535,195.361898 155.930133,193.677747 155.493355,192.240434 C155.056578,190.803121 154.991128,188.429113 155.297007,185.11841 C154.821129,187.404383 154.521591,189.48436 154.398394,191.358341 C154.275196,193.232322 154.517557,195.535598 155.125478,198.268169 L156.874562,197.292888 Z" id="Path-38" fill="#DABE9D" transform="translate(155.620908, 191.693289) rotate(-56.000000) translate(-155.620908, -191.693289) "></path>
                    <path d="M117.574755,95.984344 C120.61735,95.1907569 122.770809,93.6215388 124.035134,91.2766897 C125.299458,88.9318406 126.258634,84.7282835 126.912661,78.6660183 C126.82607,83.2041821 126.416157,86.8687017 125.68292,89.6595771 C124.949684,92.4504525 123.80328,94.7096566 122.243708,96.4371893 L117.574755,95.984344 Z" id="Path-59" fill="#DABE9D"></path>
                    <path d="M206.531446,34.3865499 L211.907751,33.1467847 C210.288583,33.9732948 208.496481,35.5307144 206.531446,37.8190435 C204.56641,40.1073726 201.763032,43.3823223 198.121311,47.6438925 C199.592701,44.5314708 200.926493,42.0029273 202.122688,40.0582619 C203.318884,38.1135965 204.788469,36.2230258 206.531446,34.3865499 Z" id="Path-60" fill="#DABE9D"></path>
                    <path d="M209.649162,57.5630105 C204.809041,57.3254647 198.918556,60.1175436 191.977706,65.939247 C185.036856,71.7609504 178.783185,79.1548979 173.216692,88.1210896 C168.465609,91.0793524 162.832107,94.4642021 156.316186,98.2756387 C149.800265,102.087075 144.378078,105.169164 140.049625,107.521905 L173.216692,91.2455297 C179.126115,81.5985871 184.610822,74.391002 189.670814,69.6227746 C194.730806,64.8545471 201.390255,60.8346258 209.649162,57.5630105 Z" id="Path-61" fill="#DABE9D"></path>
                    <path d="M113.653404,163.092448 C117.670063,162.53943 123.605369,161.484384 131.45932,159.92731 C139.313271,158.370235 157.967076,147.034271 187.420733,125.919416 C211.90489,126.987274 227.477657,126.587948 234.139036,124.721438 C251.146308,122.360711 267.211403,110.088464 282.334322,87.9046957 C273.34479,100.903736 265.695181,109.900448 259.385495,114.894833 C249.920965,122.38641 252.160659,122.598664 234.139036,125.919416 C222.208114,127.150846 207.338771,127.766561 189.531007,127.766561 C161.702038,145.97565 144.9762,156.389059 139.353492,159.00679 C133.730784,161.624521 125.164088,162.986407 113.653404,163.092448 Z" id="Path-62" fill="#DABE9D"></path>
                    <path d="M139.416361,159.174493 C141.743021,163.567017 142.702464,169.038823 142.294691,175.589911 C141.886917,182.140998 140.258688,187.413583 137.410003,191.407666 C139.505377,193.742539 140.758349,197.639755 141.16892,203.099314 C141.57949,208.558872 141.169479,215.870933 139.938887,225.035497 C141.59419,218.245289 142.379457,212.12255 142.294691,206.667282 C142.209924,201.212013 141.25048,196.125474 139.416361,191.407666 C139.764712,189.554641 140.348898,187.565835 141.16892,185.441248 C142.398952,182.254367 145.019647,177.558545 143.564533,169.442246 C142.594456,164.031379 141.211732,160.608795 139.416361,159.174493 Z" id="Path-63" fill="#DABE9D"></path>
                    <path d="M184.962318,148.134852 C183.840174,147.387072 182.837129,147.175347 181.953184,147.499677 C183.222083,145.746504 183.384801,143.435484 182.441338,140.566616 C181.497875,137.697748 180.634929,135.347638 179.852499,133.516287 C181.608788,136.498267 182.766405,138.386368 183.325349,139.180592 C184.181423,140.397018 184.261102,142.806543 183.564386,146.409166 C185.200404,147.149039 186.156234,147.910409 186.431877,148.693274 C186.707519,149.47614 186.953267,150.632406 187.169119,152.162071 C186.820062,150.225039 186.084462,148.882633 184.962318,148.134852 Z" id="Path-64" fill="#DABE9D"></path>
                    <path d="M145.096305,158.561421 C143.753705,160.391878 142.952079,163.157143 142.691427,166.857215 L139.205365,158.561421 L151.088515,152.214063 C148.436308,154.615177 146.438904,156.730964 145.096305,158.561421 Z" id="Path-65" fill="#DABE9D"></path>
                    <path d="M209.268129,181.80187 C208.390487,182.9814 205.701744,183.324889 201.2019,182.832337 C196.702056,182.339785 192.490522,181.502697 188.567297,180.321074 C193.359815,182.326236 196.796618,183.66279 198.877706,184.330737 C200.958793,184.998684 204.422268,185.377019 209.268129,185.465743 L209.268129,181.80187 Z" id="Path-66" fill="#DABE9D"></path>
                    <path d="M221.73663,162.981394 C218.027618,162.676903 214.144703,162.418701 210.087883,162.20679 C206.031064,161.99488 198.857535,158.989755 188.567297,153.191416 C194.35699,157.300403 198.568524,159.90877 201.2019,161.016516 C203.835276,162.124263 210.189877,163.564257 220.265703,165.3365 L221.73663,162.981394 Z" id="Path-66" fill="#DABE9D"></path>
                    <path d="M239.969314,154.484489 C241.395624,153.16232 235.701513,149.114767 222.886982,142.341828 C219.234648,139.391894 215.05549,134.443762 210.349508,127.497431 C217.419677,136.530555 223.30132,142.319787 227.994437,144.865128 C231.280396,146.647289 240.013709,151.511282 240.965326,151.511282 C241.599736,151.511282 243.370785,151.409071 246.278472,151.20465 L242.374621,152.162071 L239.969314,154.484489 Z" id="Path-67" fill="#DABE9D"></path>
                    <path d="M315.625616,107.521905 L312.027604,109.309301 C310.314705,107.332767 307.980839,104.420064 305.026007,100.571194 C302.071175,96.7223229 298.325918,89.262732 293.790236,78.1924209 C298.796833,89.2208816 304.597398,96.8441466 311.191932,101.062216 C317.786466,105.280285 321.173231,107.433515 321.352227,107.521905 L315.625616,107.521905 Z" id="Path-68" fill="#DABE9D"></path>
                    <path d="M302.1426,65.8605544 C304.377575,64.3468462 306.270511,63.2151518 307.821408,62.4654712 C309.372306,61.7157907 312.544244,60.858443 317.337223,59.8934282 C314.838803,60.5059493 312.532823,61.7747636 310.419283,63.6998709 C308.305744,65.6249783 306.850403,67.2407717 306.053261,68.5472511 C313.575903,67.1589215 323.054476,65.899906 334.48898,64.7702049 C345.923485,63.6405037 354.892156,62.8722591 361.394993,62.4654712 C357.140183,63.1641411 352.43561,64.2958355 347.281275,65.8605544 C342.12694,67.4252733 337.400697,69.2510168 333.102548,71.3377849 L378.543192,74.5812351 C362.724071,75.3640149 351.844593,76.0687014 345.904759,76.6952946 C339.964925,77.3218878 333.765375,79.5332078 327.306108,83.3292546 L335.497309,74.5812351 C331.834984,72.4189349 327.431476,71.5932249 322.286784,72.104105 C317.142091,72.6149852 311.087656,74.6939241 304.123477,78.340922 C310.724786,72.7961758 314.02544,70.0238027 314.02544,70.0238027 C314.02544,70.0238027 312.162138,69.5620462 308.314829,70.0238027 C307.346989,70.1399636 305.601204,70.5779576 303.077475,71.3377849 C303.77481,69.477429 304.452459,67.9040083 305.110422,66.6175229 C305.768385,65.3310374 307.208886,63.9470202 309.431926,62.4654712 L302.1426,65.8605544 Z" id="Path-69" fill="#DABE9D"></path>
                    <path d="M126.354842,121.598371 C126.235914,124.290736 126.421854,126.514333 126.912661,128.269164 C127.403469,130.023994 128.489595,132.172111 130.171037,134.713514 C128.584071,130.775755 127.692868,127.704108 127.497429,125.498572 C127.30199,123.293036 127.737373,121.26809 128.803579,119.423733 L127.497429,120.729264 L126.354842,121.598371 Z" id="Path-70" fill="#DABE9D"></path>
                    <path d="M170.452046,91.8498484 C170.862619,95.6997441 171.313309,98.5021071 171.804117,100.256938 C172.294925,102.011768 172.953798,104.129911 173.780736,106.611365 C172.866612,101.931095 172.31183,98.4881913 172.116391,96.2826554 C171.920952,94.0771195 172.782858,91.5846031 174.702109,88.8051061 L171.547867,91.8498484 L170.452046,91.8498484 Z" id="Path-70" fill="#DABE9D"></path>
                    <path d="M131.800911,104.340815 C133.438312,105.070975 134.732207,105.640178 135.682596,106.048422 C136.632986,106.456667 138.061415,107.056853 139.967884,107.84898 L148.453884,102.976765 C145.056143,104.749482 142.40424,105.720224 140.498176,105.888991 C138.592113,106.057757 135.693025,105.541699 131.800911,104.340815 Z" id="Path-94" fill="#DABE9D"></path>
                    <path d="M125.767848,189.205184 C128.674178,191.068568 131.097639,192.429173 133.038231,193.286997 C134.978823,194.144821 136.896015,194.470613 138.789807,194.264373 L139.563417,191.014528 C137.600147,192.348413 135.658363,192.6765 133.738064,191.998789 C131.817765,191.321078 129.161026,190.389877 125.767848,189.205184 Z" id="Path-96" fill="#DABE9D" transform="translate(132.665632, 191.764759) rotate(-12.000000) translate(-132.665632, -191.764759) "></path>
                </g>
            </g>
        </g>
    </g>
</svg>