<?xml version="1.0" encoding="UTF-8"?>
<svg width="545px" height="474px" viewBox="0 0 545 474" version="1.1" xmlns="http://www.w3.org/2000/svg" xmlns:xlink="http://www.w3.org/1999/xlink">
    <!-- Generator: Sketch 62 (91390) - https://sketch.com -->
    <title>sixth-hand-blue</title>
    <desc>Created with Sketch.</desc>
    <g id="Page-1" stroke="none" stroke-width="1" fill="none" fill-rule="evenodd">
        <g id="Landing-Page" transform="translate(-1.000000, -4431.000000)">
            <g id="sixth-hand-blue" transform="translate(-139.310977, 4359.023907)">
                <path d="M63,474.060902 C90.7900296,491.270164 119.60727,501.758782 149.451721,505.526755 C194.218398,511.178715 246.090393,475.96912 261.26127,473.865921 C276.432146,471.762722 311.673882,514.146167 351.076765,511.462309 C383.180386,509.275626 395.837083,486.754265 426.941144,475.091467 C447.235373,467.481931 486.656264,490.884586 511.108227,435.08487 C530.052587,391.853582 492.891331,336.7912 497.801379,327.27662 C532.322772,260.381852 498.572941,326.49527 507.678042,280.010543 C516.783144,233.525816 531.735958,249.620801 503.160267,194.096514 C474.584576,138.572226 415.138726,142.764893 397.320931,126.329957 C379.503135,109.895022 367.693613,81.5846319 314.839594,67.7896766 C261.985575,53.9947212 241.089128,96.2490511 203.319431,88.5364343 C199.908317,97.9083928 153.135173,226.416549 63,474.060902 Z" id="Path-6" fill="#BDD7EA" transform="translate(291.402940, 288.292328) rotate(-20.000000) translate(-291.402940, -288.292328) "></path>
                <g id="Group-2" transform="translate(412.810977, 296.976093) scale(-1, 1) translate(-412.810977, -296.976093) translate(140.310977, 144.976093)">
                    <path d="M545,105.853085 L545,304 L428.735754,186.249399 C408.179105,163.063469 394.264929,150.803025 386.993226,149.468068 C379.721523,148.133111 366.960532,147.465632 348.710254,147.465632 C331.285227,148.940428 315.141582,148.197432 300.279318,145.236642 C277.985922,140.795456 277.985922,140.795456 244.806382,135.705939 C212.251855,139.282581 196.283152,147.294155 179.261361,147.294155 C162.23957,147.294155 130.484555,136.679601 124.596634,132.861157 C120.671353,130.315528 118.708712,126.53849 118.708712,121.530044 L102.989848,121.530044 C74.6592017,141.663994 59.3005409,151.701307 56.9138654,151.641981 C54.52719,151.582655 53.0799862,150.858017 52.5722541,149.468068 C39.4289199,160.305995 29.9719105,166.560523 24.2012259,168.231651 C15.545199,170.738343 5.53380027,169.362616 2.37162869,164.005628 C-0.790542896,158.64864 -0.790542896,151.641981 2.37162869,149.468068 C4.47974308,148.018792 8.51092692,144.62363 14.4651802,139.282581 C16.7703248,135.304197 20.0156734,131.149748 24.2012259,126.819232 C28.3867784,122.488717 36.3644097,116.312347 48.1341199,108.290123 C38.4351222,113.087172 30.4574909,115.485697 24.2012259,115.485697 C14.8168285,115.485697 10.203083,113.082574 6.26572313,108.290123 C2.32836328,103.497672 4.99818251,99.8520511 8.34311323,96.1836178 C10.573067,93.7379957 16.8807984,89.1260709 27.2663073,82.3478436 C36.392631,73.180657 46.2868152,64.1592033 56.9488601,55.2834824 C67.6109049,46.4077615 78.9234787,37.7754474 90.8865813,29.38654 C95.3017429,25.1287946 98.974882,22.2556452 101.905999,20.7670919 C106.302674,18.5342618 118.708712,18.5342618 129.160429,16.3603488 C139.612146,14.1864357 147.377248,10.5779088 159.294729,9.11134221 C171.212211,7.64477564 184.270599,9.11134221 189.430649,9.11134221 C195.010148,7.64477564 216.637656,1 222.52382,1 C280.546536,-2.77599113 382.614068,29.38654 407.90363,40.2213175 C426.754486,50.2627608 472.453276,72.1400167 545,105.853085 Z" id="Path-28" fill="#C47C4C"></path>
                    <path d="M390.506214,150.418857 C411.824615,169.354042 422.483815,178.821634 422.483815,178.821634 L402.587616,143.116112 L418.219109,110.521739 C405.956145,124.124596 395.919501,133.158655 388.109176,137.623918 C380.298852,142.089181 368.840639,145.344008 353.734537,147.388399 C356.249098,147.010794 368.506324,148.020947 390.506214,150.418857 Z" id="Path-29" fill="#9F6640"></path>
                    <path d="M144.604228,140.697273 L179.98297,144.721023 L244.395791,134.452058 L320.211808,144.721023 L364.31818,130.086957 C352.388988,134.392194 342.302532,140.428087 334.058813,148.194634 C330.592017,148.385444 325.896651,148.213353 319.972716,147.67836 C309.436812,146.72686 284.889055,142.716789 246.329444,135.648148 C212.766776,142.409865 191.842169,146.244267 183.555624,147.151356 C175.269079,148.058444 162.28528,145.907083 144.604228,140.697273 Z" id="Path-30" fill="#9F6640"></path>
                    <path d="M118.910809,123.354441 C118.910809,116.501192 120.19316,110.523934 122.757862,105.422666 C126.604916,97.7707646 172.155567,98.648837 176.519505,98.648837 C180.883443,98.648837 184.031663,93.0991939 189.317875,93.0991939 C192.842017,93.0991939 209.236758,90.8633542 238.502098,86.3916748 C233.284398,83.0305499 229.727745,78.3556896 227.832139,72.367094 C225.936533,66.3784984 226.436077,55.9083076 229.330769,40.9565217 C225.924115,58.4106101 224.220787,68.8808009 224.220787,72.367094 C224.220787,75.8533872 225.924115,79.9837589 229.330769,84.7582092 C202.966443,88.6785375 189.628812,90.6723015 189.317875,90.7395009 C182.671331,92.1759478 183.19719,95.2731069 176.519505,95.2731069 C169.84182,95.2731069 133.153944,97.2403301 124.931775,100.82275 C119.45033,103.21103 117.443341,110.721594 118.910809,123.354441 Z" id="Path-31" fill="#9F6640"></path>
                    <path d="M227.832139,75.2450734 C220.301206,74.6020067 212.023623,73.3563389 202.999392,71.50807 C193.975161,69.6598011 185.80004,66.2070122 178.474029,61.1497034 C163.387831,62.7245986 152.519625,63.5120463 145.869413,63.5120463 C139.219201,63.5120463 131.807324,62.7245986 123.633782,61.1497034 C115.021288,67.6867822 106.995706,72.8814954 99.5570347,76.7338429 C92.1183637,80.5861904 83.2811545,84.1243991 73.0454072,87.3484692 C60.8122119,99.3584275 52.5084495,106.338979 48.1341199,108.290123 C43.0034025,110.865136 37.7177271,112.898722 32.2770936,114.39088 C36.2127159,112.464214 40.2446497,110.430629 44.3728952,108.290123 C65.3143912,97.4319031 65.3143912,91.5154608 67.8514497,87.3484692 C69.542822,84.5704748 69.542822,81.032266 67.8514497,76.7338429 C70.5644226,80.3482684 72.2957418,82.2662466 73.0454072,82.4877774 C74.1699053,82.8200737 78.7689638,82.8200737 89.9943491,76.7338429 C101.219734,70.6476121 111.148827,67.4208481 117.391304,61.1497034 C121.552956,56.9689402 122.474092,50.2378797 120.154712,40.9565217 C124.599894,50.4763195 127.899863,55.6423236 130.054616,56.4545341 C133.286747,57.6728499 151.862466,59.0379553 162.793105,59.0379553 C173.723744,59.0379553 182.578619,54.9226787 182.957432,54.753497 C186.661078,53.0994149 190.418502,50.1618783 194.229703,45.9408872 C195.509632,53.8001917 199.165837,60.161226 205.198316,65.0239903 C211.230795,69.8867546 218.775403,73.2937823 227.832139,75.2450734 Z" id="Path-32" fill="#9F6640"></path>
                    <path d="M52.5722541,149.468068 C59.030454,143.129443 62.4655436,138.786016 62.8775227,136.437788 C63.2895018,134.08956 63.8585973,129.728444 64.584809,123.354441 L66.1193581,136.437788 L89.781471,117.898006 C97.8769119,111.605487 103.853589,105.498501 107.711503,99.577047 C111.569418,93.655593 113.520493,87.5943913 113.56473,81.3934419 L114.696617,93.6250114 C123.93276,91.6428302 130.796027,89.8163803 135.28642,88.1456618 C144.069121,84.8779253 151.320325,80.7424149 157.040033,75.7391304 L171.629023,77.9392389 C172.530274,73.7428654 173.373682,70.6685073 174.159247,68.7161647 C174.944813,66.7638221 176.207298,64.6044681 177.946701,62.2381028 C176.752103,66.1451832 176.023924,69.0767516 175.762165,71.0328081 C175.500405,72.9888646 175.500405,75.4987758 175.762165,78.5625419 L183.555624,89.3356319 C180.078129,86.3664443 176.102595,83.9730607 171.629023,82.1554812 C167.155451,80.3379017 162.292454,79.1402552 157.040033,78.5625419 C146.923162,85.3123251 139.671957,89.5585805 135.28642,91.301308 C130.900883,93.0440354 123.66032,94.9413782 113.56473,96.9933364 C109.051674,104.301679 101.123921,112.542626 89.781471,121.716176 C78.4390213,130.889727 66.035949,140.140357 52.5722541,149.468068 Z" id="Path-33" fill="#9F6640"></path>
                    <path d="M102.989848,121.530044 C105.081321,120.687809 106.548496,119.836714 107.391374,118.976759 C108.234252,118.116804 109.389029,115.727077 110.855706,111.807578 L108.980584,121.530044 L102.989848,121.530044 Z" id="Path-34" fill="#A86A41"></path>
                </g>
            </g>
        </g>
    </g>
</svg>