<?xml version="1.0" encoding="UTF-8"?>
<svg width="669px" height="424px" viewBox="0 0 669 424" version="1.1" xmlns="http://www.w3.org/2000/svg" xmlns:xlink="http://www.w3.org/1999/xlink">
    <!-- Generator: Sketch 62 (91390) - https://sketch.com -->
    <title>third-hand-baby-pink</title>
    <desc>Created with Sketch.</desc>
    <g id="Page-1" stroke="none" stroke-width="1" fill="none" fill-rule="evenodd">
        <g id="Landing-Page" transform="translate(-771.000000, -1425.000000)">
            <g id="third-hand-baby-pink" transform="translate(771.000000, 1425.000000)">
                <path d="M185,3 C185,100.341082 185,355.928795 185,415.375216 C257.508783,444.124515 346.95381,386.889881 356.229525,386.889881 C369.466813,386.889881 367.243247,394.357188 434.79836,398.485614 C504.87012,389.98425 503.809321,365.98579 520.653741,372.561265 C571.034384,392.228115 617.882985,387.546106 655.165835,346.086307 C692.448686,304.626508 641.460005,237.805696 651.376681,200.988767 C661.293357,164.171839 668.078515,164.171839 653.225419,115.177187 C638.372324,66.1825357 556.56165,79.2077723 537.155683,66.1909409 C517.749717,53.1741095 505.68408,26.0652956 448.118971,15.1393867 C390.553862,4.21347778 345.701658,41.9016665 319.282423,38.1838443 C292.863188,34.4660222 291.372897,-11.1081996 185,3 Z" id="Path-6" fill="#F0C9D7" transform="translate(427.000000, 211.875832) scale(-1, 1) translate(-427.000000, -211.875832) "></path>
                <g id="Group-6" transform="translate(0.000000, 79.000000)">
                    <g id="Hand-2">
                        <path d="M669,5.65806606 C538.86278,36.5323516 460.340008,54.0709691 433.431682,58.2739188 C393.069194,64.5783433 365.709599,68.5217925 344.547288,58.2739188 C323.384977,48.0260451 297.886431,30.3993647 281.678822,21.4116994 C265.471212,12.424034 266.62626,9.73559848 250.479916,5.65806606 C239.715687,2.9397111 225.495564,1.9735481 207.819549,2.75957705 C169.819775,2.75957705 147.240814,2.75957705 140.082666,2.75957705 C129.345444,2.75957705 105.159585,-3.44947132 98.7135694,2.75957705 C92.2675536,8.96862542 89.4099875,21.4116994 92.2675536,26.5952717 C95.1251197,31.7788441 108.595469,42.809029 135.348426,48.0260451 C153.18373,51.5040559 175.455908,51.5040559 202.16496,48.0260451 C210.97929,51.8743602 215.386455,57.7944349 215.386455,65.7862692 C215.386455,72.2909342 217.073138,89.3033966 181.236863,112.998438 C168.155346,121.647972 136.62601,136.561701 86.6488529,157.739624 C41.0059054,156.856103 16.3653877,156.856103 12.7273,157.739624 C7.27016852,159.064907 2.50896057,159.064907 2.27373675e-13,170.428168 C2.27373675e-13,178.003675 4.24243335,183.772515 12.7273,187.734687 C7.59807612,189.445379 4.19196296,194.287374 2.50896057,202.260671 C3.55669379,210.375695 6.96280694,215.867273 12.7273,218.735406 C61.4567919,236.438547 87.9702098,245.290117 92.2675536,245.290117 C96.5648975,245.290117 100.477868,243.763123 104.006465,240.709135 C115.949348,254.100063 124.048905,260.795527 128.305135,260.795527 C139.924161,260.795527 145.733673,260.795527 145.733673,260.795527 C150.689285,264.736694 154.724013,266.707277 157.837859,266.707277 C162.508627,266.707277 232.062895,260.915666 239.911368,258.295939 C245.143684,256.549453 256.61593,252.214179 274.328107,245.290117 C295.011464,240.043263 308.565066,236.849877 314.988914,235.709958 C321.412762,234.570038 343.330152,221.538519 380.741084,196.615401 L669,181.945056 L669,5.65806606 Z" id="Path-5" fill="#8E4B32"></path>
                        <path d="M333.132419,96.8494624 C306.917863,122.1612 284.17125,135.681532 264.892581,137.410459 C245.613913,139.139387 219.20408,133.982256 185.663082,121.939068 C227.325577,137.615099 253.73541,145.453114 264.892581,145.453114 C276.049753,145.453114 298.796366,129.251897 333.132419,96.8494624 Z" id="Path-10" fill="#5E301E"></path>
                        <path d="M134.093833,220.726558 C134.197424,220.607497 131.16269,217.943944 124.989631,212.7359 C124.901611,212.580546 120.790265,200.889785 108.311737,191.876982 C107.057996,186.826001 86.5140308,169.655197 80.4154915,171.444187 C72.3925541,173.797694 69.5044617,181.466905 71.7512143,194.45182 C66.6775555,191.990164 60.1977919,190.332835 52.3119237,189.479833 C44.4260554,188.626831 31.2311809,187.946763 12.7273,187.439628 L65.605012,186.759583 C68.8477018,176.583768 73.7845283,170.908571 80.4154915,169.733991 C90.3619363,167.972121 107.57246,185.433825 107.57246,187.439628 C120.874558,200.933745 129.715015,212.029389 134.093833,220.726558 Z" id="Path-11" fill="#5E301E"></path>
                        <path d="M138.365672,230.739372 C126.132965,187.33094 126.132965,165.626723 138.365672,165.626723 C144.485693,162.62181 153.354656,171.962205 159.285622,189.394294 C163.088494,195.313721 166.197691,209.632918 166.197691,218.156579 C170.273693,221.625818 174.202016,225.820082 177.982662,230.739372 L169.641165,215.491848 L156.19094,175.87547 C147.74264,161.691268 138.705936,159.226536 129.080827,168.481276 C124.451525,183.321194 127.546473,204.073893 138.365672,230.739372 Z" id="Path-12" fill="#5E301E"></path>
                        <path d="M185.663082,121.939068 C199.09997,145.733663 213.038181,162.299963 227.477716,171.637968 C228.001212,171.976512 228.659073,172.208568 229.063966,172.65077 C242.268259,187.071748 271.892824,194.683765 272.240193,193.156257 C272.493251,192.04347 258.900053,184.382892 231.460598,170.174524 L185.663082,121.939068 Z" id="Path-13" fill="#5E301E"></path>
                        <path d="M84.2616828,157.711428 C85.8958214,158.654326 87.0399901,159.750517 87.6941889,161 C88.3483876,162.249483 89.6807235,165.668302 91.6911965,171.256458 L89.0540816,156.752705 L86.648725,157.711428 L84.2616828,157.711428 Z" id="Path-15" fill="#5E301E"></path>
                        <path d="M46.4705484,157.139293 C47.3244385,157.723503 48.078483,158.640349 48.7326817,159.889832 C49.3868805,161.139315 50.3939904,165.68234 51.7540116,173.518909 C51.3258339,169.097151 50.9783934,165.794872 50.7116903,163.612069 C50.4449871,161.429267 50.1643059,159.271675 49.8696467,157.139293 L46.4705484,157.139293 Z" id="Path-15" fill="#5E301E"></path>
                        <path d="M202.16496,48.0260451 C210.65677,47.4568019 217.584414,45.6504068 222.947893,42.6068599 C228.311372,39.563313 234.325119,33.4772407 240.989132,24.3486429 C236.049362,31.5269458 231.611293,37.6130181 227.674924,42.6068599 C223.738554,47.6007017 219.481138,53.686774 214.902675,60.8650769 C214.245807,58.6443682 212.923712,56.3483486 210.936388,53.9770182 C208.949064,51.6056877 206.025255,49.62203 202.16496,48.0260451 Z" id="Path-16" fill="#5E301E"></path>
                        <path d="M151.39675,169.609319 C152.36055,169.563621 153.597453,169.398417 155.107457,169.113706 C156.61746,168.828995 158.963935,167.978926 162.146881,166.563498 L152.491331,171.227832 L151.39675,169.609319 Z" id="Path-17" fill="#5E301E"></path>
                        <path d="M107.57246,187.439628 C110.983925,188.644353 114.719322,188.55326 118.77865,187.166348 C122.837979,185.779437 125.821722,183.574865 127.729882,180.552635 L127.729882,183.169265 L120.088859,189.634073 L108.975894,189.634073 L107.57246,187.439628 Z" id="Path-18" fill="#5E301E"></path>
                        <path d="M147.520322,130.825782 C146.932317,132.177179 146.932317,135.119584 147.520322,139.652996 C148.108326,144.186408 151.192157,151.396969 156.771815,161.28468 C153.297853,154.257482 151.248646,149.313627 150.624196,146.453114 C150.282545,144.888064 149.5973,137.040327 149.5973,136.240212 C149.5973,133.246487 150.48439,130.691436 152.25857,128.575058 L147.520322,130.825782 Z" id="Path-19" fill="#5E301E"></path>
                        <path d="M68.2073313,188.777653 L104.006465,240.611657 C97.2295291,232.54899 89.7573875,223.354287 81.5900397,213.027547 C74.9610326,200.077708 68.4382993,192.63179 62.0218398,190.689795 L68.2073313,188.777653 Z" id="Path-14" fill="#5E301E"></path>
                        <path d="M142.071842,247.862989 L145.733673,260.773361 L141.270323,260.773361 C142.11584,259.750755 142.594217,258.343584 142.705454,256.55185 C142.816691,254.760116 142.605487,251.863829 142.071842,247.862989 Z" id="Path-22" fill="#5E301E"></path>
                        <path d="M12.7269035,218.555539 L91.6911965,242.912828 L104.006465,240.611657 C100.15148,243.282849 97.376187,244.816963 95.6805858,245.214 C93.1371838,245.809555 87.9405768,245.809555 55.901252,234.414769 C34.5417021,226.818244 20.1502526,221.531835 12.7269035,218.555539 Z" id="Path-21" fill="#5E301E"></path>
                        <path d="M185.663082,263.952754 C193.577014,260.760397 196.844481,257.877531 195.465484,255.304157 C194.295261,252.798341 190.322972,246.360189 183.548615,235.989702 C193.742108,248.456088 200.365139,255.452335 203.417709,256.978443 C205.740869,258.139889 223.148517,257.656843 238.156594,254.318175 C252.728832,251.076463 278.178037,238.338425 279.49258,234.733601 C280.368942,232.330385 281.372653,228.658783 282.503712,223.718794 C282.503712,228.829167 283.042416,232.919469 284.119826,235.989702 C285.73594,240.595051 300.07536,234.339498 306.447475,231.384353 C309.127005,230.141689 336.508014,218.747158 353.156599,208.477275 C359.653782,204.469408 365.887305,198.79034 371.857169,191.440072 L374.848331,165.87585 C380.461485,173.925899 390.14633,180.053033 403.902866,184.257251 C417.659402,188.46147 436.816537,191.148909 461.374274,192.31957 C410.635743,195.115771 383.758013,196.793446 380.741084,197.352596 C376.21569,198.19132 333.686596,231.344077 315.764469,235.338306 C303.816384,238.001125 290.004263,241.318395 274.328107,245.290117 C265.224115,249.378487 253.751868,253.703248 239.911368,258.264401 C222.209064,261.396629 204.126302,263.292746 185.663082,263.952754 Z" id="Path-20" fill="#5E301E"></path>
                        <path d="M136.577557,48.2632186 C139.44169,47.0059871 141.997655,44.8022764 144.245452,41.6520865 C146.493248,38.5018966 149.411406,33.0674154 152.999926,25.3486429 C150.883018,31.9746105 149.084648,36.9043857 147.604814,40.1379685 C146.124981,43.3715514 144.270428,46.3703774 142.041157,49.1344466 L136.577557,48.2632186 Z" id="Path-23" fill="#5E301E"></path>
                        <path d="M525.286833,61 C457.111612,74.2069772 417.084741,82.354892 405.206218,85.4437445 C396.395053,87.7349714 389.914563,95.2867909 384.603845,103.093224 C383.371328,104.904949 380.836713,108.434692 377,113.68245 C384.466938,111.753207 389.944481,111.753207 393.432629,113.68245 C400.662524,117.681199 406.339017,123.244549 416.990089,121.170606 C439.590417,116.769943 465.049288,110.202784 493.366703,101.469129 C452.347834,110.930566 426.888963,115.001673 416.990089,113.68245 C402.141779,111.703615 402.141779,106.833738 406.861093,96.3214411 C410.007302,89.3132431 449.482548,77.5394294 525.286833,61 Z" id="Path-24" fill="#5E301E"></path>
                        <path d="M113.809167,250.847993 L127,257.946499 L141.270323,260.773361 C133.74453,260.773361 128.987755,260.773361 127,260.773361 C125.012245,260.773361 120.6153,257.464905 113.809167,250.847993 Z" id="Path-25" fill="#5E301E"></path>
                        <path d="M155.669778,266.707277 C156.695047,266.707277 163.082679,266.311866 174.832675,265.521044 C165.215722,265.63937 159.18252,265.352741 156.733067,264.661155 C154.283614,263.969568 150.61715,262.673637 145.733673,260.773361 C151.332475,264.729305 154.64451,266.707277 155.669778,266.707277 Z" id="Path-26" fill="#5E301E"></path>
                        <path d="M159.802944,168.895665 C159.482791,175.660773 159.482791,180.442052 159.802944,183.239503 C160.123097,186.036953 161.626549,190.580347 164.3133,196.869686 C162.767329,191.204403 161.721277,186.844826 161.175144,183.790955 C160.629011,180.737084 160.171611,175.771988 159.802944,168.895665 Z" id="Path-27" fill="#5E301E"></path>
                    </g>
                    <path d="M49.5646508,189 C50.1273344,189.772191 50.3614857,191.381905 50.2671047,193.829143 C50.1727237,196.276381 49.4170221,200.117198 48,205.351593 C49.873164,200.117198 51.0887072,196.111972 51.6466295,193.335916 C52.2045519,190.55986 52.4060309,189.178888 52.2510664,189.192999 L49.5646508,189 Z" id="Path-97" fill="#5E301E"></path>
                    <path d="M108.485887,191 C108.58926,191.691743 108.228606,192.791306 107.403925,194.298686 C106.579243,195.806067 105.111268,198.048935 103,201.027291 C106.633013,196.301626 108.719091,193.649445 109.258235,193.070747 C109.797379,192.49205 110.348498,192.369655 110.911593,192.703562 L108.485887,191 Z" id="Path-98" fill="#5E301E"></path>
                    <path d="M124.865532,210.485941 C125.083723,211.556893 124.780478,212.846059 123.955797,214.353439 C123.131115,215.86082 121.812516,218.085437 120,221.027291 C122.830821,217.584128 124.669595,215.625864 125.516321,215.1525 C126.363046,214.679136 127.408357,214.526521 128.652253,214.694655 L124.865532,210.485941 Z" id="Path-98" fill="#5E301E"></path>
                    <path d="M153.306228,217.582361 C156.613877,218.00028 159.491155,217.937264 161.938064,217.393315 C164.384974,216.849365 165.964039,216.023028 166.675259,214.914302 L168.067104,219.810737 C168.077766,218.466874 167.295777,217.974097 165.721137,218.332409 C164.146498,218.69072 160.008195,218.440704 153.306228,217.582361 Z" id="Path-99" fill="#5E301E"></path>
                    <path d="M147,191.668059 C150.307648,192.085978 153.184927,192.022962 155.631836,191.479013 C158.078745,190.935063 159.65781,190.108726 160.369031,189 L161.760876,193.896435 C161.771537,192.552572 160.989549,192.059795 159.414909,192.418107 C157.84027,192.776418 153.701967,192.526402 147,191.668059 Z" id="Path-99" fill="#5E301E"></path>
                </g>
            </g>
        </g>
    </g>
</svg>