<?xml version="1.0" encoding="UTF-8"?>
<svg width="493px" height="546px" viewBox="0 0 493 546" version="1.1" xmlns="http://www.w3.org/2000/svg" xmlns:xlink="http://www.w3.org/1999/xlink">
    <!-- Generator: Sketch 62 (91390) - https://sketch.com -->
    <title>two-hands-coral</title>
    <desc>Created with Sketch.</desc>
    <g id="Page-1" stroke="none" stroke-width="1" fill="none" fill-rule="evenodd">
        <g id="Landing-Page" transform="translate(-60.000000, -2258.000000)">
            <g id="two-hands-coral" transform="translate(60.000000, 2249.000000)">
                <path d="M18.357796,40.3444425 C1.7337264,54.8208137 -5.31803237,43.3583648 -12.9143698,192.036468 C-14.4946369,222.965992 6.33415237,266.441752 5.2781101,303.997466 C4.29649751,338.90626 -13.4284797,385.016346 -12.9143698,425.788774 C-12.40026,466.561203 -13.6274223,489.159374 25.7079156,508.054868 C65.0432535,526.950363 130.051615,505.929075 137.151291,508.054868 C212.892714,530.733457 243.68048,497.250924 273.892216,489.334886 C318.751438,477.580934 332.576213,489.271309 351.095077,485.336043 C381.524384,478.869801 402.619947,448.941885 414.912497,440.812267 C420.597209,437.052711 464.649868,422.506437 476.929866,400.22619 C506.708056,346.198054 471.259097,314.807928 489.137508,267.563343 C507.015919,220.318759 514.252223,184.406031 492.826573,131.36299 C471.400923,78.3199492 398.645033,89.7240553 381.416814,74.1609491 C364.188595,58.5978429 350.350605,38.9312412 299.245483,25.8680713 C248.14036,12.8049015 182.661268,49.4287997 143.736217,35.1029707 C104.811167,20.7771417 34.9818655,25.8680713 18.357796,40.3444425 Z" id="Path-6" fill="#FFDDD1" transform="translate(246.500000, 269.500000) rotate(90.000000) translate(-246.500000, -269.500000) "></path>
                <g id="fourth-hand-group" transform="translate(24.000000, 0.000000)">
                    <g id="Group-2" transform="translate(117.236965, 282.066125) rotate(-3.000000) translate(-117.236965, -282.066125) translate(14.736965, 5.566125)">
                        <path d="M80.6854839,438.47839 L126.872443,437.959677 C128.764482,440.654836 130.544111,443.691704 132.211331,447.070282 C133.878551,450.448861 135.470173,454.243746 136.986197,458.454938 C142.136111,461.432504 147.333677,465.489092 152.578895,470.624704 C157.824113,475.760315 160.939729,478.184775 161.925743,477.898084 C162.500996,477.765747 163.604668,478.782155 165.236758,480.947306 C166.868848,483.112457 168.75739,485.819632 170.902384,489.068829 C180.84027,501.124496 186.102436,507.741631 186.688881,508.920232 C187.568548,510.688134 192.201697,519.840148 185.803468,525.382226 C182.708372,528.063165 173.968297,523.979649 159.583244,513.131678 C152.861915,509.027474 145.329566,503.673232 136.986197,497.068953 C128.642829,490.464675 121.337984,484.074385 115.071664,477.898084 C104.863033,471.264624 96.8548953,465.288292 91.0472493,459.969088 C85.2396034,454.649884 81.7856816,447.486318 80.6854839,438.47839 Z" id="Path-109" fill="#B37220"></path>
                        <path d="M66.573173,16.5739966 C96.9953521,124.839735 109.586103,185.754841 104.345426,199.319313 C96.4844113,215.687132 85.4965161,214.901585 75.5476982,223.967204 C65.5988804,233.032823 59.2337761,240.015941 58.6464125,240.96143 C48.2269639,257.73379 46.6335139,270.399459 41.913855,285.163528 C37.1941961,299.927597 41.913855,285.163528 33.9145889,318.327688 C25.9153227,351.491848 10.7287529,372.551768 4.14289654,382.225761 C0.670302089,388.653071 -4.31772824,398.293548 7.01914887,406.16559 C18.356026,414.037631 36.0572798,400.709198 44.9419779,390.072399 C53.826676,379.4356 56.8771292,371.167727 62.8251199,362.220767 C66.790447,356.256127 69.804104,346.432806 71.8660911,332.750802 C81.2251015,346.165474 86.3018062,355.988796 87.0962051,362.220767 C88.2878034,371.568724 80.6377867,375.100499 78.9771503,382.225761 C77.3165139,389.351022 78.1259669,381.858837 78.1259669,400.709198 C78.1259669,413.276105 73.6838908,425.015946 64.7997386,435.928722 C57.1403601,444.693379 50.9789447,452.130514 46.3154925,458.240127 C39.3203141,467.404547 36.5209502,478.152277 41.913855,484.468338 C49.2207825,488.384399 57.217076,484.919692 65.9027356,474.074217 L78.1259669,466.34448 C75.0793386,471.740346 72.9927133,475.837593 71.8660911,478.636223 C70.7394689,481.434852 69.6190256,484.169358 68.5047613,486.83974 C61.7329053,491.344954 56.3054093,495.895041 52.2222731,500.49 C48.139137,505.08496 44.1750559,510.200946 40.33003,515.837959 C29.8502053,523.380933 23.4120058,528.937619 21.0154313,532.508017 C14.0223235,542.926297 18.4204018,554.88853 25.6142047,552.726099 C33.9535595,550.219319 47.52566,540.031713 58.6464125,529.725759 C62.6993298,525.969792 69.7602869,523.390221 76.4906332,517.942745 C80.2114327,514.931166 86.2940456,508.007507 94.7384719,497.171768 C102.997947,490.081033 109.748023,483.741203 114.9887,478.152277 C120.229376,472.563352 129.170291,451.444167 141.811443,414.794722 C141.811443,414.794722 148.294235,405.574775 161.259819,387.13488 C176.693535,343.48042 186.214634,302.41452 189.823115,263.937179 L200.764827,216.946551 C203.237945,208.910869 204.474504,199.011912 204.474504,187.249681 C204.474504,175.48745 196.185331,113.716445 179.606984,1.936665 C163.226618,0.304797144 145.890319,0.468922173 127.598088,2.42904009 C109.305857,4.38915801 88.9642188,9.10414351 66.573173,16.5739966 Z" id="Path-2" fill="#B37220" transform="translate(102.237252, 276.903260) scale(-1, 1) translate(-102.237252, -276.903260) "></path>
                        <path d="M71.5763613,16.5739966 L108.104695,164.373959 L106.499656,197.486218 C102.433743,205.723724 99.6371735,212.770275 98.1099479,218.625873 C94.514716,232.410497 99.4279715,254.028325 98.1099479,259.969838 C95.9520955,269.697212 99.2836778,286.193087 108.104695,309.457463 C102.266321,288.738713 100.583793,272.242838 103.057109,259.969838 C105.530426,247.696838 113.869509,233.915516 128.074359,218.625873 C128.401688,218.320812 131.387359,215.943838 137.031371,211.494951 C142.675383,207.046064 120.857046,142.072413 71.5763613,16.5739966 Z" id="Path-3" fill="#865211" transform="translate(104.738846, 163.015730) scale(-1, 1) translate(-104.738846, -163.015730) "></path>
                        <path d="M143.395344,342.435484 C148.605045,344.517827 153.05273,346.565981 156.7384,348.579944 C160.424071,350.593908 166.734507,354.424323 175.669708,360.07119 C168.544123,353.66324 163.628772,349.832825 160.923655,348.579944 C158.218538,347.327064 152.375768,345.27891 143.395344,342.435484 Z" id="Path-4" fill="#865211" transform="translate(159.532526, 351.253337) scale(-1, 1) translate(-159.532526, -351.253337) "></path>
                        <path d="M121.367703,360.07119 L108.004227,332.750802 L116.397347,344.890744 L133.66119,371.349085 L137.634603,321.718425 L140.057365,363.350701 L134.140192,380.09543 L128.218443,405.545832 C124.954306,407.067287 121.784013,409.492299 118.707564,412.820867 C116.078321,415.665581 111.270145,422.912115 104.121087,432.350696 C103.310436,433.420962 102.121832,434.751345 100.555275,436.341844 L112.651363,412.820867 C113.276434,394.822396 114.097741,384.624027 115.115286,382.225761 C116.132831,379.827494 118.21697,375.442096 121.367703,369.069566 L121.367703,360.07119 Z" id="Path-7" fill="#865211" transform="translate(120.306320, 379.030135) scale(-1, 1) translate(-120.306320, -379.030135) "></path>
                        <path d="M35.5950813,424.781935 L66.6541482,388.161906 L88.1950558,332.32324 C85.5247615,342.823509 83.2141929,351.33863 81.26335,357.868605 C79.3125071,364.39858 76.0908876,374.154005 71.5984915,387.13488 L52.150115,414.794722 C49.2116062,427.328564 46.5117721,436.980726 44.0506128,443.751208 C41.5894535,450.521689 35.7786228,461.449378 26.6181206,476.534273 C32.7003145,463.871264 36.7312799,454.285138 38.7110169,447.775897 C40.6907539,441.266656 42.4706192,431.747163 44.0506128,419.217419 L35.5950813,424.781935 Z" id="Path-9" fill="#865211" transform="translate(57.406588, 404.428757) scale(-1, 1) translate(-57.406588, -404.428757) "></path>
                        <path d="M66.7741935,348.075092 C75.618612,346.171875 81.7921265,344.292006 85.294737,342.435484 C88.7973475,340.578962 91.4196455,337.796704 93.161631,334.08871 L91.307882,343.606155 L98.0476549,358.9687 C95.110996,353.401986 90.8600234,349.770783 85.294737,348.075092 C79.7294506,346.379401 73.5559361,346.379401 66.7741935,348.075092 Z" id="Path-103" fill="#865211"></path>
                        <path d="M96.4516129,405.829971 C100.365973,404.982738 103.558571,404.154893 106.029408,403.346437 C108.500245,402.537981 110.367832,401.710136 111.632169,400.862903 L115.122467,405.829971 C113.624891,405.274733 110.846119,404.997114 106.786152,404.997114 C102.726184,404.997114 99.2813381,405.274733 96.4516129,405.829971 Z" id="Path-104" fill="#865211"></path>
                        <path d="M133.359189,331.194735 C138.315864,324.090887 141.90562,315.864866 144.128458,306.516673 C146.351297,297.16848 148.207307,282.492219 149.69649,262.487889 C149.085334,282.335633 148.113992,296.274032 146.782464,304.303084 C145.450936,312.332137 140.976511,321.296021 133.359189,331.194735 Z" id="Path-105" fill="#865211"></path>
                        <path d="M128.412426,442.498925 C132.403334,441.17984 134.99833,439.666787 136.197415,437.959764 C137.396499,436.252742 138.110967,435.012178 138.340817,434.238074 L141.930382,438.522316 C140.858661,438.020838 139.417433,438.221963 137.606698,439.12569 C135.795963,440.029418 132.731206,441.153829 128.412426,442.498925 Z" id="Path-106" fill="#865211"></path>
                        <path d="M128.644048,465.286636 C125.425627,462.551063 120.918433,457.553613 115.122467,450.294285 C106.543574,445.152827 99.5340508,440.717058 94.0938965,436.986977 C88.6537423,433.256895 83.6951419,429.188548 79.2180952,424.781935 C83.2606841,429.677466 88.2192845,434.406733 94.0938965,438.969735 C99.9685086,443.532737 106.330848,447.958684 113.180915,452.247578 C116.058676,456.834582 119.968727,461.180935 124.911068,465.286636 C128.289096,468.09283 141.803182,479.788508 152.485616,484.299987 C155.783533,485.692785 159.422316,485.285883 163.401966,483.07928 C159.856695,485.10748 155.124902,484.490317 149.206588,481.22779 C140.329116,476.334 131.082666,467.359396 128.644048,465.286636 Z" id="Path-108" fill="#865211"></path>
                        <path d="M120.485936,461.086602 C125.999924,467.493463 129.583234,472.429508 131.235867,475.894737 C133.714817,481.092581 131.133717,477.925112 138.571769,486.599906 C146.00982,495.274701 144.083215,491.875289 150.241935,498.060992 C154.347749,502.184795 157.593454,506.739278 159.979052,511.724442 L171.126263,521.238782 C172.220589,522.12342 170.234332,519.692206 165.167493,513.945141 C160.100654,508.198075 155.491303,502.290894 151.339441,496.223596 C145.132577,491.478195 140.876686,487.726006 138.571769,484.967027 C136.266851,482.208049 134.354697,478.577112 132.835307,474.074217 L133.368595,470.543937 L120.485936,461.086602 Z" id="Path-110" fill="#865211"></path>
                        <path d="M146.532258,515.005335 C151.905261,512.18609 155.083801,510.382476 156.067877,509.594496 C157.051954,508.806515 157.526965,507.804586 157.492912,506.58871 L162.603959,513.484897 C160.409079,511.569695 158.230385,511.000873 156.067877,511.77843 C153.905369,512.555987 150.726829,513.631622 146.532258,515.005335 Z" id="Path-111" fill="#865211"></path>
                        <path d="M116.854839,483.827985 C123.198762,480.938319 126.862762,479.099496 127.846839,478.311515 C128.830915,477.523534 129.721835,475.944255 130.519599,473.573679 L134.500226,480.585535 C132.832541,479.113549 130.917444,478.766334 128.754936,479.543892 C126.592428,480.321449 122.625729,481.74948 116.854839,483.827985 Z" id="Path-111" fill="#865211"></path>
                        <path d="M161.370968,493.038713 C164.333678,491.617107 166.319566,490.573581 167.328631,489.908134 C168.337697,489.242687 169.151918,488.393272 169.771296,487.359889 C170.500302,488.449004 170.895666,489.066001 170.957387,489.210879 C170.644637,490.036976 169.502675,490.423393 167.328631,490.988555 C165.879269,491.36533 163.893381,492.048716 161.370968,493.038713 Z" id="Path-112" fill="#865211"></path>
                    </g>
                    <g id="Group" transform="translate(338.020305, 285.917811) scale(-1, 1) rotate(-4.000000) translate(-338.020305, -285.917811) translate(235.520305, 11.417811)">
                        <path d="M80.6854839,434.47839 L126.872443,433.959677 C128.764482,436.654836 130.544111,439.691704 132.211331,443.070282 C133.878551,446.448861 135.470173,450.243746 136.986197,454.454938 C142.136111,457.432504 147.333677,461.489092 152.578895,466.624704 C157.824113,471.760315 160.939729,474.184775 161.925743,473.898084 C162.500996,473.765747 163.604668,474.782155 165.236758,476.947306 C166.868848,479.112457 168.75739,481.819632 170.902384,485.068829 C180.84027,497.124496 186.102436,503.741631 186.688881,504.920232 C187.568548,506.688134 192.201697,515.840148 185.803468,521.382226 C182.708372,524.063165 173.968297,519.979649 159.583244,509.131678 C152.861915,505.027474 145.329566,499.673232 136.986197,493.068953 C128.642829,486.464675 121.337984,480.074385 115.071664,473.898084 C104.863033,467.264624 96.8548953,461.288292 91.0472493,455.969088 C85.2396034,450.649884 81.7856816,443.486318 80.6854839,434.47839 Z" id="Path-109" fill="#FFF2E2"></path>
                        <path d="M63.7542202,1.39276395 C96.0557011,117.112658 109.586103,181.754841 104.345426,195.319313 C96.4844113,211.687132 85.4965161,210.901585 75.5476982,219.967204 C65.5988804,229.032823 59.2337761,236.015941 58.6464125,236.96143 C48.2269639,253.73379 46.6335139,266.399459 41.913855,281.163528 C37.1941961,295.927597 41.913855,281.163528 33.9145889,314.327688 C25.9153227,347.491848 10.7287529,368.551768 4.14289654,378.225761 C0.670302089,384.653071 -4.31772824,394.293548 7.01914887,402.16559 C18.356026,410.037631 36.0572798,396.709198 44.9419779,386.072399 C53.826676,375.4356 56.8771292,367.167727 62.8251199,358.220767 C66.790447,352.256127 69.804104,342.432806 71.8660911,328.750802 C81.2251015,342.165474 86.3018062,351.988796 87.0962051,358.220767 C88.2878034,367.568724 80.6377867,371.100499 78.9771503,378.225761 C77.3165139,385.351022 78.1259669,377.858837 78.1259669,396.709198 C78.1259669,409.276105 73.6838908,421.015946 64.7997386,431.928722 C57.1403601,440.693379 50.9789447,448.130514 46.3154925,454.240127 C39.3203141,463.404547 36.5209502,474.152277 41.913855,480.468338 C49.2207825,484.384399 57.217076,480.919692 65.9027356,470.074217 L78.1259669,462.34448 C75.0793386,467.740346 72.9927133,471.837593 71.8660911,474.636223 C70.7394689,477.434852 69.6190256,480.169358 68.5047613,482.83974 C61.7329053,487.344954 56.3054093,491.895041 52.2222731,496.49 C48.139137,501.08496 44.1750559,506.200946 40.33003,511.837959 C29.8502053,519.380933 23.4120058,524.937619 21.0154313,528.508017 C14.0223235,538.926297 18.4204018,550.88853 25.6142047,548.726099 C33.9535595,546.219319 47.52566,536.031713 58.6464125,525.725759 C62.6993298,521.969792 69.7602869,519.390221 76.4906332,513.942745 C80.2114327,510.931166 86.2940456,504.007507 94.7384719,493.171768 C102.997947,486.081033 109.748023,479.741203 114.9887,474.152277 C120.229376,468.563352 129.170291,447.444167 141.811443,410.794722 C141.811443,410.794722 148.294235,401.574775 161.259819,383.13488 C176.693535,339.48042 186.214634,298.41452 189.823115,259.937179 L200.764827,212.946551 C203.237945,204.910869 204.474504,195.011912 204.474504,183.249681 C204.474504,171.48745 196.539932,112.963361 180.670788,7.6774145 C177.473304,5.67574343 167.500119,3.91325618 150.751234,2.38995275 C134.002348,0.866649319 105.003344,0.534253054 63.7542202,1.39276395 Z" id="Path-2" fill="#FFF2E2" transform="translate(102.237252, 274.955254) scale(-1, 1) translate(-102.237252, -274.955254) "></path>
                        <path d="M71.6051431,1.39276395 L110.952429,160.373959 L109.34739,193.486218 C105.281477,201.723724 102.484908,208.770275 100.957682,214.625873 C97.3624505,228.410497 102.275706,250.028325 100.957682,255.969838 C98.7998301,265.697212 102.131412,282.193087 110.952429,305.457463 C105.114056,284.738713 103.431527,268.242838 105.904844,255.969838 C108.37816,243.696838 116.717243,229.915516 130.922094,214.625873 C131.249423,214.320812 134.235093,211.943838 139.879105,207.494951 C145.523117,203.046064 122.76513,134.345335 71.6051431,1.39276395 Z" id="Path-3" fill="#F1D5B3" transform="translate(106.162714, 153.425114) scale(-1, 1) translate(-106.162714, -153.425114) "></path>
                        <path d="M143.395344,338.435484 C148.605045,340.517827 153.05273,342.565981 156.7384,344.579944 C160.424071,346.593908 166.734507,350.424323 175.669708,356.07119 C168.544123,349.66324 163.628772,345.832825 160.923655,344.579944 C158.218538,343.327064 152.375768,341.27891 143.395344,338.435484 Z" id="Path-4" fill="#F1D5B3" transform="translate(159.532526, 347.253337) scale(-1, 1) translate(-159.532526, -347.253337) "></path>
                        <path d="M121.367703,356.07119 L108.004227,328.750802 L116.397347,340.890744 L133.66119,367.349085 L137.634603,317.718425 L140.057365,359.350701 L134.140192,376.09543 L128.218443,401.545832 C124.954306,403.067287 121.784013,405.492299 118.707564,408.820867 C116.078321,411.665581 111.270145,418.912115 104.121087,428.350696 C103.310436,429.420962 102.121832,430.751345 100.555275,432.341844 L112.651363,408.820867 C113.276434,390.822396 114.097741,380.624027 115.115286,378.225761 C116.132831,375.827494 118.21697,371.442096 121.367703,365.069566 L121.367703,356.07119 Z" id="Path-7" fill="#F1D5B3" transform="translate(120.306320, 375.030135) scale(-1, 1) translate(-120.306320, -375.030135) "></path>
                        <path d="M35.5950813,420.781935 L66.6541482,384.161906 L88.1950558,328.32324 C85.5247615,338.823509 83.2141929,347.33863 81.26335,353.868605 C79.3125071,360.39858 76.0908876,370.154005 71.5984915,383.13488 L52.150115,410.794722 C49.2116062,423.328564 46.5117721,432.980726 44.0506128,439.751208 C41.5894535,446.521689 35.7786228,457.449378 26.6181206,472.534273 C32.7003145,459.871264 36.7312799,450.285138 38.7110169,443.775897 C40.6907539,437.266656 42.4706192,427.747163 44.0506128,415.217419 L35.5950813,420.781935 Z" id="Path-9" fill="#F1D5B3" transform="translate(57.406588, 400.428757) scale(-1, 1) translate(-57.406588, -400.428757) "></path>
                        <path d="M66.7741935,344.075092 C75.618612,342.171875 81.7921265,340.292006 85.294737,338.435484 C88.7973475,336.578962 91.4196455,333.796704 93.161631,330.08871 L91.307882,339.606155 L98.0476549,354.9687 C95.110996,349.401986 90.8600234,345.770783 85.294737,344.075092 C79.7294506,342.379401 73.5559361,342.379401 66.7741935,344.075092 Z" id="Path-103" fill="#F1D5B3"></path>
                        <path d="M96.4516129,401.829971 C100.365973,400.982738 103.558571,400.154893 106.029408,399.346437 C108.500245,398.537981 110.367832,397.710136 111.632169,396.862903 L115.122467,401.829971 C113.624891,401.274733 110.846119,400.997114 106.786152,400.997114 C102.726184,400.997114 99.2813381,401.274733 96.4516129,401.829971 Z" id="Path-104" fill="#F1D5B3"></path>
                        <path d="M133.359189,327.194735 C138.315864,320.090887 141.90562,311.864866 144.128458,302.516673 C146.351297,293.16848 148.207307,278.492219 149.69649,258.487889 C149.085334,278.335633 148.113992,292.274032 146.782464,300.303084 C145.450936,308.332137 140.976511,317.296021 133.359189,327.194735 Z" id="Path-105" fill="#F1D5B3"></path>
                        <path d="M128.412426,438.498925 C132.403334,437.17984 134.99833,435.666787 136.197415,433.959764 C137.396499,432.252742 138.110967,431.012178 138.340817,430.238074 L141.930382,434.522316 C140.858661,434.020838 139.417433,434.221963 137.606698,435.12569 C135.795963,436.029418 132.731206,437.153829 128.412426,438.498925 Z" id="Path-106" fill="#F1D5B3"></path>
                        <path d="M128.644048,461.286636 C125.425627,458.551063 120.918433,453.553613 115.122467,446.294285 C106.543574,441.152827 99.5340508,436.717058 94.0938965,432.986977 C88.6537423,429.256895 83.6951419,425.188548 79.2180952,420.781935 C83.2606841,425.677466 88.2192845,430.406733 94.0938965,434.969735 C99.9685086,439.532737 106.330848,443.958684 113.180915,448.247578 C116.058676,452.834582 119.968727,457.180935 124.911068,461.286636 C128.289096,464.09283 141.803182,475.788508 152.485616,480.299987 C155.783533,481.692785 159.422316,481.285883 163.401966,479.07928 C159.856695,481.10748 155.124902,480.490317 149.206588,477.22779 C140.329116,472.334 131.082666,463.359396 128.644048,461.286636 Z" id="Path-108" fill="#F1D5B3"></path>
                        <path d="M120.485936,457.086602 C125.999924,463.493463 129.583234,468.429508 131.235867,471.894737 C133.714817,477.092581 131.133717,473.925112 138.571769,482.599906 C146.00982,491.274701 144.083215,487.875289 150.241935,494.060992 C154.347749,498.184795 157.593454,502.739278 159.979052,507.724442 L171.126263,517.238782 C172.220589,518.12342 170.234332,515.692206 165.167493,509.945141 C160.100654,504.198075 155.491303,498.290894 151.339441,492.223596 C145.132577,487.478195 140.876686,483.726006 138.571769,480.967027 C136.266851,478.208049 134.354697,474.577112 132.835307,470.074217 L133.368595,466.543937 L120.485936,457.086602 Z" id="Path-110" fill="#F1D5B3"></path>
                        <path d="M146.532258,511.005335 C151.905261,508.18609 155.083801,506.382476 156.067877,505.594496 C157.051954,504.806515 157.526965,503.804586 157.492912,502.58871 L162.603959,509.484897 C160.409079,507.569695 158.230385,507.000873 156.067877,507.77843 C153.905369,508.555987 150.726829,509.631622 146.532258,511.005335 Z" id="Path-111" fill="#F1D5B3"></path>
                        <path d="M116.854839,479.827985 C123.198762,476.938319 126.862762,475.099496 127.846839,474.311515 C128.830915,473.523534 129.721835,471.944255 130.519599,469.573679 L134.500226,476.585535 C132.832541,475.113549 130.917444,474.766334 128.754936,475.543892 C126.592428,476.321449 122.625729,477.74948 116.854839,479.827985 Z" id="Path-111" fill="#F1D5B3"></path>
                        <path d="M161.370968,489.038713 C164.333678,487.617107 166.319566,486.573581 167.328631,485.908134 C168.337697,485.242687 169.151918,484.393272 169.771296,483.359889 C170.500302,484.449004 170.895666,485.066001 170.957387,485.210879 C170.644637,486.036976 169.502675,486.423393 167.328631,486.988555 C165.879269,487.36533 163.893381,488.048716 161.370968,489.038713 Z" id="Path-112" fill="#F1D5B3"></path>
                    </g>
                </g>
            </g>
        </g>
    </g>
</svg>